<svg width="336" height="252" viewBox="0 0 336 252" fill="none" xmlns="http://www.w3.org/2000/svg">
<rect width="336" height="252" fill="white"/>
<mask id="path-2-inside-1_1143_21815" fill="white">
<rect x="28" y="24" width="280" height="160" rx="4"/>
</mask>
<rect x="28" y="24" width="280" height="160" rx="4" fill="white" stroke="#3535F3" stroke-width="12" mask="url(#path-2-inside-1_1143_21815)"/>
<path d="M160.859 188L70 197.75V201L168 195.75V188H160.859Z" fill="#9999FF"/>
<path d="M175.141 188L266 197.75V201L168 195.75V188H175.141Z" fill="#9999FF"/>
<rect x="70" y="199" width="8" height="4" fill="#9999FF"/>
<rect x="258" y="199" width="8" height="4" fill="#9999FF"/>
<rect x="161" y="185" width="14" height="4" fill="#9999FF"/>
<rect x="42" y="48" width="252" height="60" rx="4" fill="#6464FF"/>
<rect x="42" y="116" width="44" height="24" rx="4" fill="#FFD947"/>
<rect x="42" y="148" width="24" height="24" rx="4" fill="#E8E8FC"/>
<rect x="71" y="148" width="24" height="24" rx="4" fill="#E8E8FC"/>
<rect x="242" y="55" width="32" height="46" rx="4" fill="#9999FF"/>
<rect x="100" y="148" width="24" height="24" rx="4" fill="#E8E8FC"/>
<rect x="129" y="148" width="24" height="24" rx="4" fill="#E8E8FC"/>
<rect x="158" y="148" width="24" height="24" rx="4" fill="#E8E8FC"/>
<rect x="162" y="55" width="32" height="46" rx="4" fill="#FFD947"/>
<rect x="202" y="55" width="32" height="46" rx="4" fill="#A7F6E9"/>
<rect x="187" y="148" width="24" height="24" rx="4" fill="#E8E8FC"/>
<rect x="216" y="148" width="24" height="24" rx="4" fill="#E8E8FC"/>
<rect x="245" y="148" width="24" height="24" rx="4" fill="#9999FF"/>
<rect x="274" y="148" width="24" height="24" rx="4" fill="#E8E8FC"/>
<rect x="94" y="116" width="44" height="24" rx="4" fill="#A7F6E9"/>
<rect x="146" y="116" width="44" height="24" rx="4" fill="#9999FF"/>
<rect x="198" y="116" width="44" height="24" rx="4" fill="#FFD947"/>
<rect x="250" y="116" width="44" height="24" rx="4" fill="#9999FF"/>
<circle cx="290" cy="40" r="4" fill="#6464FF"/>
<circle cx="278" cy="40" r="4" fill="#9999FF"/>
<circle cx="266" cy="40" r="4" fill="#6464FF"/>
<g clip-path="url(#clip0_1143_21815)">
<path d="M104 160C104 164.418 107.582 168 112 168C116.418 168 120 164.418 120 160C120 155.582 116.418 152 112 152C107.582 152 104 155.582 104 160Z" fill="#3535F3"/>
<path d="M113.811 159.25L115.281 157.78C115.576 157.485 115.576 157.01 115.281 156.72C114.986 156.43 114.511 156.425 114.221 156.72L112.221 158.72C111.926 159.015 111.926 159.49 112.221 159.78L114.221 161.78C114.366 161.925 114.561 162 114.751 162C114.941 162 115.136 161.925 115.281 161.78C115.576 161.485 115.576 161.01 115.281 160.72L113.811 159.25ZM109.781 158.72C109.486 158.425 109.011 158.425 108.721 158.72C108.431 159.015 108.426 159.49 108.721 159.78L110.191 161.25L108.721 162.72C108.426 163.015 108.426 163.49 108.721 163.78C108.866 163.925 109.061 164 109.251 164C109.441 164 109.636 163.925 109.781 163.78L111.781 161.78C112.076 161.485 112.076 161.01 111.781 160.72L109.781 158.72ZM110.501 157.5C111.051 157.5 111.501 157.05 111.501 156.5C111.501 155.95 111.051 155.5 110.501 155.5C109.951 155.5 109.501 155.95 109.501 156.5C109.501 157.05 109.951 157.5 110.501 157.5Z" fill="white"/>
</g>
<circle cx="254" cy="40" r="4" fill="#9999FF"/>
<rect x="54" y="60" width="92" height="4" rx="2" fill="#E8E8FC"/>
<rect x="54" y="68" width="60" height="4" rx="2" fill="#E8E8FC"/>
<rect x="54" y="76" width="60" height="4" rx="2" fill="#E8E8FC"/>
<rect x="54" y="92" width="18" height="4" rx="2" fill="#E8E8FC"/>
<g clip-path="url(#clip1_1143_21815)">
<path d="M149 152H133V168H149V152Z" fill="#3535F3"/>
<path d="M144.825 158H143.535L141.83 155.445C141.739 155.309 141.615 155.197 141.47 155.12C141.326 155.043 141.164 155.003 141 155.003C140.836 155.003 140.675 155.043 140.53 155.12C140.385 155.197 140.262 155.309 140.17 155.445L138.465 158H137.185C137.039 157.998 136.894 158.028 136.76 158.089C136.627 158.149 136.508 158.238 136.413 158.349C136.317 158.46 136.247 158.591 136.208 158.732C136.169 158.873 136.161 159.021 136.185 159.165L136.78 162.745C136.839 163.099 137.022 163.42 137.297 163.651C137.573 163.881 137.921 164.005 138.28 164H143.73C144.089 164.005 144.438 163.881 144.713 163.651C144.988 163.42 145.172 163.099 145.23 162.745L145.825 159.165C145.849 159.021 145.841 158.873 145.802 158.732C145.763 158.591 145.693 158.46 145.598 158.349C145.502 158.238 145.384 158.149 145.25 158.089C145.117 158.028 144.972 157.998 144.825 158ZM141 156L142.335 158H139.665L141 156Z" fill="white"/>
</g>
<g clip-path="url(#clip2_1143_21815)">
<path d="M75 160C75 164.418 78.5817 168 83 168C87.4183 168 91 164.418 91 160C91 155.582 87.4183 152 83 152C78.5817 152 75 155.582 75 160Z" fill="#3535F3"/>
<path d="M82.3402 161.33L79.0752 160V161.96C79.0752 163.775 81.6802 163.775 82.5352 163.775C83.3902 163.775 85.9902 163.775 85.9902 161.96V160L82.7302 161.345C82.6675 161.369 82.6007 161.38 82.5337 161.377C82.4667 161.375 82.4009 161.359 82.3402 161.33Z" fill="white"/>
<path d="M87.6601 160.96V158.295C87.6591 158.25 87.6441 158.207 87.6172 158.171C87.5903 158.135 87.5528 158.108 87.5101 158.095L82.6351 156.26C82.569 156.235 82.4962 156.235 82.4301 156.26L77.8651 158.095C77.8246 158.111 77.7897 158.138 77.7648 158.174C77.7399 158.209 77.7261 158.251 77.7251 158.295C77.7258 158.339 77.7394 158.382 77.7643 158.418C77.7892 158.455 77.8242 158.483 77.8651 158.5L82.4301 160.335C82.4649 160.34 82.5003 160.34 82.5351 160.335C82.5683 160.339 82.6019 160.339 82.6351 160.335L87.0951 158.655V160.96C86.892 161.027 86.7195 161.164 86.6084 161.347C86.4974 161.53 86.455 161.746 86.489 161.958C86.523 162.169 86.6312 162.361 86.794 162.5C86.9568 162.638 87.1637 162.714 87.3776 162.714C87.5915 162.714 87.7984 162.638 87.9612 162.5C88.1241 162.361 88.2321 162.169 88.2662 161.958C88.3002 161.746 88.2578 161.53 88.1468 161.347C88.0357 161.164 87.8632 161.027 87.6601 160.96Z" fill="white"/>
</g>
<g clip-path="url(#clip3_1143_21815)">
<path d="M162 160C162 164.418 165.582 168 170 168C174.418 168 178 164.418 178 160C178 155.582 174.418 152 170 152C165.582 152 162 155.582 162 160Z" fill="#3535F3"/>
<path d="M173.635 155.625C173.623 155.56 173.599 155.499 173.564 155.443C173.529 155.388 173.483 155.34 173.429 155.302C173.375 155.265 173.314 155.238 173.25 155.224C173.186 155.21 173.12 155.209 173.055 155.22L172.61 155.3L171.64 157L173.81 156.615L173.635 155.625ZM171.33 155.525L169.275 155.89L168.305 157.58L170.36 157.22L171.33 155.525ZM168 156.115L166.17 156.435C166.041 156.457 165.927 156.529 165.85 156.634C165.773 156.74 165.741 156.871 165.76 157L165.93 158L167.025 157.805L168 156.115ZM166 158.5V163C166 163.265 166.105 163.52 166.293 163.707C166.48 163.895 166.735 164 167 164H173C173.265 164 173.519 163.895 173.707 163.707C173.895 163.52 174 163.265 174 163V158.5H166ZM171.13 161.65L169.8 162.65C169.726 162.706 169.637 162.74 169.545 162.748C169.452 162.756 169.359 162.739 169.276 162.697C169.193 162.656 169.123 162.592 169.075 162.513C169.026 162.434 169 162.343 169 162.25V160.25C169 160.157 169.026 160.066 169.075 159.987C169.123 159.908 169.193 159.844 169.276 159.803C169.359 159.761 169.452 159.744 169.545 159.752C169.637 159.76 169.726 159.794 169.8 159.85L171.13 160.85C171.192 160.897 171.242 160.957 171.277 161.026C171.312 161.096 171.33 161.172 171.33 161.25C171.33 161.328 171.312 161.404 171.277 161.474C171.242 161.543 171.192 161.603 171.13 161.65Z" fill="white"/>
</g>
<g clip-path="url(#clip4_1143_21815)">
<path d="M46 160C46 164.418 49.5817 168 54 168C58.4183 168 62 164.418 62 160C62 155.582 58.4183 152 54 152C49.5817 152 46 155.582 46 160Z" fill="#3535F3"/>
<path fill-rule="evenodd" clip-rule="evenodd" d="M56 157H52C51.2044 157 50.4413 157.316 49.8787 157.879C49.3161 158.441 49 159.204 49 160C49 160.796 49.3161 161.559 49.8787 162.121C50.4413 162.684 51.2044 163 52 163H53L55.225 164.5C55.3013 164.55 55.3898 164.579 55.4811 164.582C55.5724 164.586 55.6629 164.564 55.7427 164.52C55.8226 164.475 55.8888 164.41 55.9342 164.331C55.9795 164.252 56.0023 164.161 56 164.07V163C56.7956 163 57.5587 162.684 58.1213 162.121C58.6839 161.559 59 160.796 59 160C59 159.204 58.6839 158.441 58.1213 157.879C57.5587 157.316 56.7956 157 56 157ZM52 160.5C51.9011 160.5 51.8044 160.471 51.7222 160.416C51.64 160.361 51.5759 160.283 51.5381 160.191C51.5002 160.1 51.4903 159.999 51.5096 159.902C51.5289 159.805 51.5765 159.716 51.6464 159.646C51.7164 159.577 51.8055 159.529 51.9025 159.51C51.9994 159.49 52.1 159.5 52.1913 159.538C52.2827 159.576 52.3608 159.64 52.4157 159.722C52.4707 159.804 52.5 159.901 52.5 160C52.5 160.133 52.4473 160.26 52.3536 160.354C52.2598 160.447 52.1326 160.5 52 160.5ZM54 160.5C53.9011 160.5 53.8044 160.471 53.7222 160.416C53.64 160.361 53.5759 160.283 53.5381 160.191C53.5002 160.1 53.4903 159.999 53.5096 159.902C53.5289 159.805 53.5765 159.716 53.6464 159.646C53.7164 159.577 53.8055 159.529 53.9025 159.51C53.9994 159.49 54.1 159.5 54.1913 159.538C54.2827 159.576 54.3608 159.64 54.4157 159.722C54.4707 159.804 54.5 159.901 54.5 160C54.5 160.133 54.4473 160.26 54.3536 160.354C54.2598 160.447 54.1326 160.5 54 160.5ZM56 160.5C55.9011 160.5 55.8044 160.471 55.7222 160.416C55.64 160.361 55.5759 160.283 55.5381 160.191C55.5002 160.1 55.4903 159.999 55.5096 159.902C55.5289 159.805 55.5765 159.716 55.6464 159.646C55.7164 159.577 55.8055 159.529 55.9025 159.51C55.9994 159.49 56.1 159.5 56.1913 159.538C56.2827 159.576 56.3608 159.64 56.4157 159.722C56.4707 159.804 56.5 159.901 56.5 160C56.5 160.133 56.4473 160.26 56.3536 160.354C56.2598 160.447 56.1326 160.5 56 160.5Z" fill="white"/>
</g>
<g clip-path="url(#clip5_1143_21815)">
<path d="M191 160C191 164.418 194.582 168 199 168C203.418 168 207 164.418 207 160C207 155.582 203.418 152 199 152C194.582 152 191 155.582 191 160Z" fill="#3535F3"/>
<path d="M201.08 155.5H196.925C196.547 155.5 196.185 155.65 195.917 155.917C195.65 156.185 195.5 156.547 195.5 156.925V163.075C195.499 163.262 195.536 163.447 195.607 163.62C195.678 163.793 195.782 163.95 195.914 164.082C196.046 164.215 196.203 164.32 196.375 164.391C196.548 164.463 196.733 164.5 196.92 164.5H201.075C201.452 164.499 201.813 164.349 202.079 164.083C202.346 163.817 202.497 163.457 202.5 163.08V156.925C202.5 156.548 202.351 156.186 202.084 155.919C201.818 155.652 201.457 155.501 201.08 155.5ZM196.5 157.04C196.5 156.946 196.527 156.855 196.577 156.775C196.627 156.696 196.699 156.632 196.783 156.592C196.868 156.551 196.962 156.535 197.055 156.545C197.148 156.556 197.236 156.592 197.31 156.65L198.5 157.61C198.558 157.657 198.606 157.716 198.638 157.784C198.67 157.851 198.687 157.925 198.687 158C198.687 158.075 198.67 158.149 198.638 158.216C198.606 158.284 198.558 158.343 198.5 158.39L197.3 159.35C197.226 159.405 197.139 159.439 197.047 159.448C196.956 159.457 196.864 159.44 196.781 159.4C196.698 159.359 196.628 159.297 196.579 159.219C196.529 159.142 196.502 159.052 196.5 158.96V157.04ZM201 163.5H197C196.867 163.5 196.74 163.447 196.646 163.354C196.553 163.26 196.5 163.133 196.5 163C196.5 162.867 196.553 162.74 196.646 162.646C196.74 162.553 196.867 162.5 197 162.5H201C201.133 162.5 201.26 162.553 201.354 162.646C201.447 162.74 201.5 162.867 201.5 163C201.5 163.133 201.447 163.26 201.354 163.354C201.26 163.447 201.133 163.5 201 163.5ZM201 161.5H197C196.867 161.5 196.74 161.447 196.646 161.354C196.553 161.26 196.5 161.133 196.5 161C196.5 160.867 196.553 160.74 196.646 160.646C196.74 160.553 196.867 160.5 197 160.5H201C201.133 160.5 201.26 160.553 201.354 160.646C201.447 160.74 201.5 160.867 201.5 161C201.5 161.133 201.447 161.26 201.354 161.354C201.26 161.447 201.133 161.5 201 161.5ZM201 159.5H200C199.867 159.5 199.74 159.447 199.646 159.354C199.553 159.26 199.5 159.133 199.5 159C199.5 158.867 199.553 158.74 199.646 158.646C199.74 158.553 199.867 158.5 200 158.5H201C201.133 158.5 201.26 158.553 201.354 158.646C201.447 158.74 201.5 158.867 201.5 159C201.5 159.133 201.447 159.26 201.354 159.354C201.26 159.447 201.133 159.5 201 159.5ZM201 157.5H200C199.867 157.5 199.74 157.447 199.646 157.354C199.553 157.26 199.5 157.133 199.5 157C199.5 156.867 199.553 156.74 199.646 156.646C199.74 156.553 199.867 156.5 200 156.5H201C201.133 156.5 201.26 156.553 201.354 156.646C201.447 156.74 201.5 156.867 201.5 157C201.5 157.133 201.447 157.26 201.354 157.354C201.26 157.447 201.133 157.5 201 157.5Z" fill="white"/>
</g>
<mask id="path-59-inside-2_1143_21815" fill="white">
<rect x="2" y="111.824" width="82.3529" height="111.176" rx="4"/>
</mask>
<rect x="2" y="111.824" width="82.3529" height="111.176" rx="4" fill="white" stroke="#6464FF" stroke-width="12" mask="url(#path-59-inside-2_1143_21815)"/>
<rect x="11.0588" y="120.882" width="64.2353" height="49.4118" rx="4" fill="#6464FF"/>
<rect x="11.0588" y="173.588" width="24.7059" height="13.1765" rx="4" fill="#A7F6E9"/>
<rect x="11.0588" y="190.059" width="64.2353" height="23.0588" rx="4" fill="#E8E8FC"/>
<rect x="37.4119" y="173.588" width="24.7059" height="13.1765" rx="4" fill="#FFD947"/>
<path d="M63.7646 177.588C63.7646 175.379 65.5555 173.588 67.7646 173.588H77.7646V186.765H67.7646C65.5555 186.765 63.7646 184.974 63.7646 182.765V177.588Z" fill="#A7F6E9"/>
<rect x="38.2354" y="115.118" width="9.88235" height="0.823529" rx="0.411765" fill="white"/>
<rect x="34.9414" y="195" width="33.7647" height="1.46803" rx="0.734015" fill="#9999FF"/>
<rect x="34.9414" y="197.936" width="22.0205" height="1.46803" rx="0.734015" fill="#9999FF"/>
<rect x="34.9414" y="200.872" width="22.0205" height="1.46803" rx="0.734015" fill="#9999FF"/>
<rect x="34.9414" y="206.744" width="6.60614" height="1.46803" rx="0.734015" fill="#9999FF"/>
<mask id="mask0_1143_21815" style="mask-type:alpha" maskUnits="userSpaceOnUse" x="2" y="111" width="83" height="112">
<path d="M84.3529 111L2 223H84.3529V111Z" fill="#D9D9D9"/>
</mask>
<g mask="url(#mask0_1143_21815)">
<mask id="path-71-inside-3_1143_21815" fill="white">
<rect x="2" y="111.824" width="82.3529" height="111.176" rx="4"/>
</mask>
<rect x="2" y="111.824" width="82.3529" height="111.176" rx="4" stroke="#000093" stroke-width="12" mask="url(#path-71-inside-3_1143_21815)"/>
</g>
<rect x="13.5293" y="192.529" width="18.1176" height="18.1176" rx="4" fill="#9999FF"/>
<g clip-path="url(#clip6_1143_21815)">
<path d="M35 146C35 150.418 38.5817 154 43 154C47.4183 154 51 150.418 51 146C51 141.582 47.4183 138 43 138C38.5817 138 35 141.582 35 146Z" fill="#6464FF"/>
<path d="M46.6349 141.625C46.6234 141.56 46.5993 141.499 46.564 141.443C46.5286 141.388 46.4827 141.34 46.4288 141.302C46.3749 141.265 46.3142 141.238 46.25 141.224C46.1859 141.21 46.1196 141.209 46.0549 141.22L45.6099 141.3L44.6399 143L46.8099 142.615L46.6349 141.625ZM44.3299 141.525L42.2749 141.89L41.3049 143.58L43.3599 143.22L44.3299 141.525ZM40.9999 142.115L39.1699 142.435C39.0414 142.457 38.9266 142.529 38.85 142.634C38.7734 142.74 38.741 142.871 38.7599 143L38.9299 144L40.0249 143.805L40.9999 142.115ZM38.9999 144.5V149C38.9999 149.265 39.1052 149.52 39.2928 149.707C39.4803 149.895 39.7347 150 39.9999 150H45.9999C46.2651 150 46.5195 149.895 46.707 149.707C46.8945 149.52 46.9999 149.265 46.9999 149V144.5H38.9999ZM44.1299 147.65L42.7999 148.65C42.7256 148.706 42.6373 148.74 42.5448 148.748C42.4523 148.756 42.3593 148.739 42.2763 148.697C42.1932 148.656 42.1234 148.592 42.0746 148.513C42.0257 148.434 41.9999 148.343 41.9999 148.25V146.25C41.9999 146.157 42.0257 146.066 42.0746 145.987C42.1234 145.908 42.1932 145.844 42.2763 145.803C42.3593 145.761 42.4523 145.744 42.5448 145.752C42.6373 145.76 42.7256 145.794 42.7999 145.85L44.1299 146.85C44.192 146.897 44.2424 146.957 44.2771 147.026C44.3118 147.096 44.3299 147.172 44.3299 147.25C44.3299 147.328 44.3118 147.404 44.2771 147.474C44.2424 147.543 44.192 147.603 44.1299 147.65Z" fill="white"/>
</g>
<rect x="184" y="114" width="130" height="80" rx="3" fill="white" stroke="#3535F3" stroke-width="6"/>
<path d="M179.473 200.718C180.221 199.642 181.448 199 182.759 199H315.241C316.552 199 317.779 199.642 318.527 200.718L325.276 210.437C328.96 215.742 325.163 223 318.705 223H179.295C172.837 223 169.04 215.742 172.724 210.437L179.473 200.718Z" fill="#3535F3"/>
<rect x="190" y="120" width="118" height="28" rx="2" fill="#6464FF"/>
<rect x="190" y="152" width="26" height="4" rx="1" fill="#9999FF"/>
<rect x="246" y="162" width="50" height="2" rx="1" fill="#9999FF"/>
<rect x="246" y="166" width="42" height="2" rx="1" fill="#9999FF"/>
<rect x="246" y="177" width="8" height="2" rx="1" fill="#9999FF"/>
<rect x="246" y="182" width="18" height="2" rx="1" fill="#9999FF"/>
<rect x="190" y="161" width="54" height="23" rx="1" fill="#9999FF"/>
<rect x="221" y="152" width="26" height="4" rx="1" fill="#9999FF"/>
<rect x="252" y="152" width="26" height="4" rx="1" fill="#9999FF"/>
<rect x="283" y="152" width="26" height="4" rx="1" fill="#9999FF"/>
<g clip-path="url(#clip7_1143_21815)">
<path d="M212 134C212 138.418 215.582 142 220 142C224.418 142 228 138.418 228 134C228 129.582 224.418 126 220 126C215.582 126 212 129.582 212 134Z" fill="#3535F3"/>
<path d="M222.08 129.5H217.925C217.547 129.5 217.185 129.65 216.917 129.917C216.65 130.185 216.5 130.547 216.5 130.925V137.075C216.499 137.262 216.536 137.447 216.607 137.62C216.678 137.793 216.782 137.95 216.914 138.082C217.046 138.215 217.203 138.32 217.375 138.391C217.548 138.463 217.733 138.5 217.92 138.5H222.075C222.452 138.499 222.813 138.349 223.079 138.083C223.346 137.817 223.497 137.457 223.5 137.08V130.925C223.5 130.548 223.351 130.186 223.084 129.919C222.818 129.652 222.457 129.501 222.08 129.5ZM217.5 131.04C217.5 130.946 217.527 130.855 217.577 130.775C217.627 130.696 217.699 130.632 217.783 130.592C217.868 130.551 217.962 130.535 218.055 130.545C218.148 130.556 218.236 130.592 218.31 130.65L219.5 131.61C219.558 131.657 219.606 131.716 219.638 131.784C219.67 131.851 219.687 131.925 219.687 132C219.687 132.075 219.67 132.149 219.638 132.216C219.606 132.284 219.558 132.343 219.5 132.39L218.3 133.35C218.226 133.405 218.139 133.439 218.047 133.448C217.956 133.457 217.864 133.44 217.781 133.4C217.698 133.359 217.628 133.297 217.579 133.219C217.529 133.142 217.502 133.052 217.5 132.96V131.04ZM222 137.5H218C217.867 137.5 217.74 137.447 217.646 137.354C217.553 137.26 217.5 137.133 217.5 137C217.5 136.867 217.553 136.74 217.646 136.646C217.74 136.553 217.867 136.5 218 136.5H222C222.133 136.5 222.26 136.553 222.354 136.646C222.447 136.74 222.5 136.867 222.5 137C222.5 137.133 222.447 137.26 222.354 137.354C222.26 137.447 222.133 137.5 222 137.5ZM222 135.5H218C217.867 135.5 217.74 135.447 217.646 135.354C217.553 135.26 217.5 135.133 217.5 135C217.5 134.867 217.553 134.74 217.646 134.646C217.74 134.553 217.867 134.5 218 134.5H222C222.133 134.5 222.26 134.553 222.354 134.646C222.447 134.74 222.5 134.867 222.5 135C222.5 135.133 222.447 135.26 222.354 135.354C222.26 135.447 222.133 135.5 222 135.5ZM222 133.5H221C220.867 133.5 220.74 133.447 220.646 133.354C220.553 133.26 220.5 133.133 220.5 133C220.5 132.867 220.553 132.74 220.646 132.646C220.74 132.553 220.867 132.5 221 132.5H222C222.133 132.5 222.26 132.553 222.354 132.646C222.447 132.74 222.5 132.867 222.5 133C222.5 133.133 222.447 133.26 222.354 133.354C222.26 133.447 222.133 133.5 222 133.5ZM222 131.5H221C220.867 131.5 220.74 131.447 220.646 131.354C220.553 131.26 220.5 131.133 220.5 131C220.5 130.867 220.553 130.74 220.646 130.646C220.74 130.553 220.867 130.5 221 130.5H222C222.133 130.5 222.26 130.553 222.354 130.646C222.447 130.74 222.5 130.867 222.5 131C222.5 131.133 222.447 131.26 222.354 131.354C222.26 131.447 222.133 131.5 222 131.5Z" fill="white"/>
</g>
<g clip-path="url(#clip8_1143_21815)">
<path d="M241 134C241 138.418 244.582 142 249 142C253.418 142 257 138.418 257 134C257 129.582 253.418 126 249 126C244.582 126 241 129.582 241 134Z" fill="#3535F3"/>
<path d="M246.5 134C246.5 133.499 246.525 132.998 246.575 132.5H244.23C243.923 133.476 243.923 134.524 244.23 135.5H246.575C246.525 135.002 246.5 134.501 246.5 134ZM244.675 136.5C245.284 137.553 246.257 138.348 247.41 138.735C247.069 138.028 246.835 137.275 246.715 136.5H244.675ZM253.325 131.5C252.716 130.447 251.743 129.652 250.59 129.265C250.931 129.972 251.165 130.725 251.285 131.5H253.325ZM249 129C248.59 129 248.035 129.94 247.73 131.5H250.27C249.965 129.94 249.41 129 249 129ZM247.58 132.5C247.473 133.497 247.473 134.503 247.58 135.5H250.42C250.474 135.002 250.5 134.501 250.5 134C250.5 133.499 250.474 132.998 250.42 132.5H247.58ZM250.58 138.735C251.737 138.35 252.713 137.555 253.325 136.5H251.285C251.165 137.275 250.931 138.028 250.59 138.735H250.58ZM253.77 132.5H251.425C251.475 132.998 251.5 133.499 251.5 134C251.5 134.501 251.475 135.002 251.425 135.5H253.77C254.077 134.524 254.077 133.476 253.77 132.5ZM249 139C249.41 139 249.965 138.06 250.27 136.5H247.73C248.035 138.06 248.59 139 249 139ZM244.675 131.5H246.715C246.835 130.725 247.069 129.972 247.41 129.265C246.257 129.652 245.284 130.447 244.675 131.5Z" fill="white"/>
</g>
<g clip-path="url(#clip9_1143_21815)">
<path d="M270 134C270 138.418 273.582 142 278 142C282.418 142 286 138.418 286 134C286 129.582 282.418 126 278 126C273.582 126 270 129.582 270 134Z" fill="#3535F3"/>
<path d="M276.92 138.535C276.614 138.035 276.209 137.603 275.73 137.265C275.251 136.928 274.708 136.691 274.135 136.57H274.09C274.037 136.57 273.986 136.591 273.948 136.629C273.911 136.666 273.89 136.717 273.89 136.77C273.89 136.813 273.904 136.855 273.93 136.89C274.6 137.84 275.579 138.529 276.7 138.84H276.75C276.776 138.84 276.802 138.835 276.826 138.825C276.851 138.815 276.873 138.8 276.891 138.781C276.91 138.763 276.925 138.741 276.935 138.717C276.945 138.692 276.95 138.666 276.95 138.64C276.945 138.604 276.934 138.569 276.92 138.535Z" fill="white"/>
<path d="M282.825 132.665C282.827 132.645 282.827 132.625 282.825 132.605C282.565 131.723 282.068 130.93 281.387 130.312C280.706 129.695 279.868 129.277 278.965 129.105H278.93C278.877 129.105 278.826 129.126 278.788 129.164C278.751 129.201 278.73 129.252 278.73 129.305V129.34C279.184 132.089 278.884 134.909 277.86 137.5C277.845 137.537 277.819 137.568 277.786 137.591C277.754 137.613 277.715 137.625 277.675 137.625C277.649 137.626 277.623 137.621 277.599 137.612C277.574 137.602 277.552 137.588 277.534 137.57C277.515 137.551 277.5 137.53 277.49 137.506C277.48 137.482 277.475 137.456 277.475 137.43C277.475 137.43 277.445 137.1 277.425 136.93C277.149 134.539 276.425 132.222 275.29 130.1C275.279 130.073 275.262 130.049 275.241 130.029C275.22 130.009 275.195 129.994 275.167 129.985C275.14 129.975 275.111 129.972 275.082 129.974C275.053 129.977 275.025 129.986 275 130C274.294 130.54 273.743 131.258 273.405 132.08C273.389 132.125 273.388 132.173 273.402 132.219C273.417 132.264 273.446 132.303 273.485 132.33C274.585 133.005 275.499 133.944 276.144 135.062C276.789 136.179 277.145 137.44 277.18 138.73C277.182 138.778 277.2 138.823 277.232 138.859C277.264 138.895 277.308 138.918 277.355 138.925C277.475 138.925 277.59 138.955 277.71 138.96C277.757 138.96 277.802 138.943 277.837 138.913C277.873 138.883 277.897 138.841 277.905 138.795C278.146 137.476 278.71 136.238 279.547 135.191C280.383 134.144 281.467 133.321 282.7 132.795C282.73 132.786 282.758 132.77 282.78 132.747C282.802 132.724 282.817 132.696 282.825 132.665Z" fill="white"/>
<path d="M282.345 136.46C282.345 136.407 282.324 136.356 282.286 136.319C282.249 136.281 282.198 136.26 282.145 136.26H282.1C280.552 136.596 279.164 137.446 278.16 138.67C278.13 138.706 278.114 138.753 278.115 138.8C278.115 138.853 278.136 138.904 278.173 138.941C278.211 138.979 278.262 139 278.315 139C279.13 138.951 279.921 138.703 280.618 138.278C281.316 137.852 281.898 137.262 282.315 136.56C282.333 136.53 282.343 136.495 282.345 136.46Z" fill="white"/>
</g>
<rect x="88.9512" y="214" width="76.0976" height="14" rx="4" fill="#000093"/>
<path d="M96.1056 204.02C96.8171 202.771 98.1438 202 99.581 202H154.419C155.856 202 157.183 202.771 157.894 204.02L163.592 214.02C165.112 216.686 163.186 220 160.117 220H93.883C90.8139 220 88.8881 216.686 90.4076 214.02L96.1056 204.02Z" fill="#6464FF"/>
<ellipse cx="126.579" cy="210.737" rx="10.1053" ry="3.45264" fill="#9999FF"/>
<rect x="112" y="180" width="21" height="70" rx="4" transform="rotate(66.5313 112 180)" fill="#000093"/>
<rect x="115.007" y="193.957" width="4.2" height="4.2" rx="1" transform="rotate(66.5313 115.007 193.957)" fill="#9999FF"/>
<rect x="110.546" y="183.683" width="4.2" height="4.2" rx="1" transform="rotate(66.5313 110.546 183.683)" fill="#9999FF"/>
<rect x="96.4209" y="189.818" width="15.4" height="15.4" rx="7.7" transform="rotate(66.5313 96.4209 189.818)" fill="#9999FF"/>
<rect x="98.5214" y="197.301" width="9.39951" height="9.39951" rx="2.75" transform="rotate(111.531 98.5214 197.301)" fill="#9999FF" stroke="#000093" stroke-width="0.5"/>
<rect x="69.4531" y="201.526" width="4.2" height="4.2" rx="1" transform="rotate(66.5313 69.4531 201.526)" fill="#9999FF"/>
<rect x="71.6836" y="206.663" width="4.2" height="4.2" rx="1" transform="rotate(66.5313 71.6836 206.663)" fill="#9999FF"/>
<rect x="73.9131" y="211.8" width="4.2" height="4.2" rx="1" transform="rotate(66.5313 73.9131 211.8)" fill="#9999FF"/>
<rect x="64.3162" y="203.756" width="4.2" height="4.2" rx="1" transform="rotate(66.5313 64.3162 203.756)" fill="#9999FF"/>
<rect x="66.5469" y="208.893" width="4.2" height="4.2" rx="1" transform="rotate(66.5313 66.5469 208.893)" fill="#9999FF"/>
<rect x="68.7764" y="214.031" width="4.2" height="4.2" rx="1" transform="rotate(66.5313 68.7764 214.031)" fill="#9999FF"/>
<rect x="59.1794" y="205.987" width="4.2" height="4.2" rx="1" transform="rotate(66.5313 59.1794 205.987)" fill="#9999FF"/>
<rect x="53.4004" y="208.496" width="4.2" height="1.4" rx="0.7" transform="rotate(66.5313 53.4004 208.496)" fill="#9999FF"/>
<rect x="80.3682" y="196.787" width="4.2" height="8.4" rx="1" transform="rotate(66.5313 80.3682 196.787)" fill="#9999FF"/>
<rect x="55.6309" y="213.633" width="4.2" height="1.4" rx="0.7" transform="rotate(66.5313 55.6309 213.633)" fill="#9999FF"/>
<rect x="61.4102" y="211.124" width="4.2" height="4.2" rx="1" transform="rotate(66.5313 61.4102 211.124)" fill="#9999FF"/>
<rect x="57.8611" y="218.77" width="4.2" height="1.4" rx="0.7" transform="rotate(66.5313 57.8611 218.77)" fill="#9999FF"/>
<rect x="63.6406" y="216.261" width="4.2" height="4.2" rx="1" transform="rotate(66.5313 63.6406 216.261)" fill="#9999FF"/>
<rect x="84.8291" y="207.061" width="4.2" height="8.4" rx="1" transform="rotate(66.5313 84.8291 207.061)" fill="#9999FF"/>
<rect x="93.7472" y="196.592" width="5.1" height="5.1" rx="2.55" transform="rotate(66.5313 93.7472 196.592)" fill="#9999FF" stroke="#000093" stroke-width="0.5"/>
<defs>
<clipPath id="clip0_1143_21815">
<rect x="104" y="152" width="16" height="16" rx="8" fill="white"/>
</clipPath>
<clipPath id="clip1_1143_21815">
<rect x="133" y="152" width="16" height="16" rx="8" fill="white"/>
</clipPath>
<clipPath id="clip2_1143_21815">
<rect x="75" y="152" width="16" height="16" rx="8" fill="white"/>
</clipPath>
<clipPath id="clip3_1143_21815">
<rect x="162" y="152" width="16" height="16" rx="8" fill="white"/>
</clipPath>
<clipPath id="clip4_1143_21815">
<rect x="46" y="152" width="16" height="16" rx="8" fill="white"/>
</clipPath>
<clipPath id="clip5_1143_21815">
<rect x="191" y="152" width="16" height="16" rx="8" fill="white"/>
</clipPath>
<clipPath id="clip6_1143_21815">
<rect x="35" y="138" width="16" height="16" rx="8" fill="white"/>
</clipPath>
<clipPath id="clip7_1143_21815">
<rect x="212" y="126" width="16" height="16" rx="8" fill="white"/>
</clipPath>
<clipPath id="clip8_1143_21815">
<rect x="241" y="126" width="16" height="16" rx="8" fill="white"/>
</clipPath>
<clipPath id="clip9_1143_21815">
<rect x="270" y="126" width="16" height="16" rx="8" fill="white"/>
</clipPath>
</defs>
</svg>
