<svg width="18" height="22" viewBox="0 0 18 22" fill="none" xmlns="http://www.w3.org/2000/svg">
<g id="Icon">
<path id="Vector" d="M13.5281 10.125L17.2031 6.45C17.9406 5.7125 17.9406 4.525 17.2031 3.8C16.4656 3.075 15.2781 3.0625 14.5531 3.8L9.55313 8.8C8.81563 9.5375 8.81563 10.725 9.55313 11.45L14.5531 16.45C14.9156 16.8125 15.4031 17 15.8781 17C16.3531 17 16.8406 16.8125 17.2031 16.45C17.9406 15.7125 17.9406 14.525 17.2031 13.8L13.5281 10.125ZM3.45313 8.8C2.71563 8.0625 1.52813 8.0625 0.803125 8.8C0.078125 9.5375 0.065625 10.725 0.803125 11.45L4.47813 15.125L0.803125 18.8C0.065625 19.5375 0.065625 20.725 0.803125 21.45C1.16563 21.8125 1.65313 22 2.12813 22C2.60313 22 3.09063 21.8125 3.45313 21.45L8.45313 16.45C9.19063 15.7125 9.19063 14.525 8.45313 13.8L3.45313 8.8ZM5.25313 5.75C6.62813 5.75 7.75313 4.625 7.75313 3.25C7.75313 1.875 6.62813 0.75 5.25313 0.75C3.87813 0.75 2.75313 1.875 2.75313 3.25C2.75313 4.625 3.87813 5.75 5.25313 5.75Z" fill="white"/>
</g>
</svg>
