<svg width="336" height="252" viewBox="0 0 336 252" fill="none" xmlns="http://www.w3.org/2000/svg">
<rect width="336" height="252" fill="white"/>
<path d="M197.09 76.98H57.0701V224.02H197.09V76.98Z" fill="#000093"/>
<path d="M164.88 112.15H89.29V224.03H164.88V112.15Z" fill="#F5F5F5"/>
<path d="M164.88 146.56V169.16L116.84 112.15H135.88L164.88 146.56Z" fill="white"/>
<path d="M164.88 185.35V215.43L89.29 125.72V112.15H103.2L164.88 185.35Z" fill="white"/>
<path d="M150.87 224.03H139.11L89.29 164.9V150.95L150.87 224.03Z" fill="white"/>
<path style="mix-blend-mode:multiply" d="M89.29 112.15H87.28V224.03H89.29V112.15Z" fill="url(#paint0_linear_1143_21920)"/>
<path style="mix-blend-mode:multiply" d="M166.89 112.15H164.88V224.03H166.89V112.15Z" fill="url(#paint1_linear_1143_21920)"/>
<path style="mix-blend-mode:multiply" d="M87.28 110.14V112.15H166.89V110.14H87.28Z" fill="url(#paint2_linear_1143_21920)"/>
<path d="M127.82 112.15H126.34V224.03H127.82V112.15Z" fill="#E5E5F5"/>
<g style="mix-blend-mode:multiply" opacity="0.3">
<path d="M188.27 150.51H175.71C174.838 150.51 174.13 151.217 174.13 152.09V157.41C174.13 158.283 174.838 158.99 175.71 158.99H188.27C189.143 158.99 189.85 158.283 189.85 157.41V152.09C189.85 151.217 189.143 150.51 188.27 150.51Z" fill="url(#paint3_linear_1143_21920)"/>
<path d="M188.27 122.47H175.71C174.838 122.47 174.13 123.177 174.13 124.05V129.37C174.13 130.243 174.838 130.95 175.71 130.95H188.27C189.143 130.95 189.85 130.243 189.85 129.37V124.05C189.85 123.177 189.143 122.47 188.27 122.47Z" fill="url(#paint4_linear_1143_21920)"/>
<path d="M184.84 195.33H172.28C171.407 195.33 170.7 196.037 170.7 196.91V202.23C170.7 203.103 171.407 203.81 172.28 203.81H184.84C185.713 203.81 186.42 203.103 186.42 202.23V196.91C186.42 196.037 185.713 195.33 184.84 195.33Z" fill="url(#paint5_linear_1143_21920)"/>
<path d="M57.0701 126.32H67.1601C68.0301 126.32 68.7401 127.03 68.7401 127.9V133.22C68.7401 134.09 68.0301 134.8 67.1601 134.8H57.0701V126.32Z" fill="url(#paint6_linear_1143_21920)"/>
<path d="M57.0701 181.66H62.6701C63.5401 181.66 64.2501 182.37 64.2501 183.24V188.56C64.2501 189.43 63.5401 190.14 62.6701 190.14H57.0701V181.66Z" fill="url(#paint7_linear_1143_21920)"/>
<path d="M197.1 140.21H187.01C186.14 140.21 185.43 139.5 185.43 138.63V133.31C185.43 132.44 186.14 131.73 187.01 131.73H197.1V140.21Z" fill="url(#paint8_linear_1143_21920)"/>
<path d="M166.89 170.01H171.15C172.02 170.01 172.73 170.72 172.73 171.59V176.91C172.73 177.78 172.02 178.49 171.15 178.49H166.89V170.01Z" fill="url(#paint9_linear_1143_21920)"/>
<path d="M78.18 135.86H65.62C64.7474 135.86 64.04 136.567 64.04 137.44V142.76C64.04 143.633 64.7474 144.34 65.62 144.34H78.18C79.0526 144.34 79.76 143.633 79.76 142.76V137.44C79.76 136.567 79.0526 135.86 78.18 135.86Z" fill="url(#paint10_linear_1143_21920)"/>
<path d="M82.41 199.57H69.85C68.9774 199.57 68.27 200.277 68.27 201.15V206.47C68.27 207.343 68.9774 208.05 69.85 208.05H82.41C83.2826 208.05 83.99 207.343 83.99 206.47V201.15C83.99 200.277 83.2826 199.57 82.41 199.57Z" fill="url(#paint11_linear_1143_21920)"/>
</g>
<path d="M59.5801 73H194.58C195.97 73 197.09 74.13 197.09 75.51V81.73H57.0701V75.51C57.0701 74.12 58.2001 73 59.5801 73Z" fill="#000093"/>
<path d="M131.64 160.8H130.13C129.705 160.8 129.36 161.145 129.36 161.57V172.01C129.36 172.435 129.705 172.78 130.13 172.78H131.64C132.065 172.78 132.41 172.435 132.41 172.01V161.57C132.41 161.145 132.065 160.8 131.64 160.8Z" fill="#6464FF"/>
<path d="M124.07 160.8H122.56C122.135 160.8 121.79 161.145 121.79 161.57V172.01C121.79 172.435 122.135 172.78 122.56 172.78H124.07C124.495 172.78 124.84 172.435 124.84 172.01V161.57C124.84 161.145 124.495 160.8 124.07 160.8Z" fill="#6464FF"/>
<path d="M60.91 102.59H42L57.07 81.73H72.63L60.91 102.59Z" fill="#3535F3"/>
<path d="M212.17 102.59H193.26L181.54 81.73H197.1L212.17 102.59Z" fill="url(#paint12_linear_1143_21920)"/>
<path d="M79.8199 102.59H60.9099L72.6299 81.73H88.1899L79.8199 102.59Z" fill="#E8E8FC"/>
<path d="M98.7201 102.59H79.8201L88.1901 81.73H103.75L98.7201 102.59Z" fill="#3535F3"/>
<path d="M117.63 102.59H98.72L103.75 81.73H119.31L117.63 102.59Z" fill="#E8E8FC"/>
<path d="M136.54 102.59H117.63L119.31 81.73H134.86L136.54 102.59Z" fill="#3535F3"/>
<path d="M155.45 102.59H136.54L134.86 81.73H150.42L155.45 102.59Z" fill="#E8E8FC"/>
<path d="M174.35 102.59H155.45L150.42 81.73H165.98L174.35 102.59Z" fill="url(#paint13_linear_1143_21920)"/>
<path d="M193.26 102.59H174.35L165.98 81.73H181.54L193.26 102.59Z" fill="white"/>
<path d="M42 102.59H60.91V107.62C60.91 111.99 57.36 115.54 52.99 115.54H49.93C45.55 115.54 42 111.99 42 107.62V102.59Z" fill="#3535F3"/>
<path d="M60.9099 102.59H79.8199V107.62C79.8199 111.99 76.2699 115.54 71.8999 115.54H68.8399C64.4699 115.54 60.9199 111.99 60.9199 107.62V102.59H60.9099Z" fill="#E8E8FC"/>
<path d="M79.8201 102.59H98.7301V107.62C98.7301 111.99 95.1801 115.54 90.8101 115.54H87.7501C83.3801 115.54 79.8301 111.99 79.8301 107.62V102.59H79.8201Z" fill="#3535F3"/>
<path d="M98.72 102.59H117.63V107.62C117.63 111.99 114.08 115.54 109.71 115.54H106.65C102.28 115.54 98.73 111.99 98.73 107.62V102.59H98.72Z" fill="#E8E8FC"/>
<path d="M117.63 102.59H136.54V107.62C136.54 111.99 132.99 115.54 128.62 115.54H125.56C121.19 115.54 117.64 111.99 117.64 107.62V102.59H117.63Z" fill="#3535F3"/>
<path d="M136.54 102.59H155.45V107.62C155.45 111.99 151.9 115.54 147.53 115.54H144.47C140.1 115.54 136.55 111.99 136.55 107.62V102.59H136.54Z" fill="#E8E8FC"/>
<path d="M155.45 102.59H174.36V107.62C174.36 111.99 170.81 115.54 166.44 115.54H163.38C159.01 115.54 155.46 111.99 155.46 107.62V102.59H155.45Z" fill="url(#paint14_linear_1143_21920)"/>
<path d="M174.35 102.59H193.26V107.62C193.26 111.99 189.71 115.54 185.34 115.54H182.28C177.91 115.54 174.36 111.99 174.36 107.62V102.59H174.35Z" fill="#EFF0F5"/>
<path d="M193.26 102.59H212.17V107.62C212.17 111.99 208.62 115.54 204.25 115.54H201.19C196.82 115.54 193.27 111.99 193.27 107.62V102.59H193.26Z" fill="url(#paint15_linear_1143_21920)"/>
<path d="M135.94 144.66C135.87 144.66 135.8 144.63 135.75 144.58L127.09 135.07L118.43 144.58C118.33 144.69 118.17 144.69 118.06 144.6C117.95 144.5 117.95 144.34 118.04 144.23L126.89 134.51C126.99 134.4 127.17 134.4 127.27 134.51L136.12 144.23C136.22 144.34 136.21 144.5 136.1 144.6C136.05 144.64 135.99 144.67 135.93 144.67L135.94 144.66Z" fill="#6464FF"/>
<path d="M137.36 144.13H116.81C115.639 144.13 114.69 145.079 114.69 146.25V149.66C114.69 150.831 115.639 151.78 116.81 151.78H137.36C138.531 151.78 139.48 150.831 139.48 149.66V146.25C139.48 145.079 138.531 144.13 137.36 144.13Z" fill="#6464FF"/>
<path d="M181.39 224.81C181.39 224.81 186.76 213.2 180.4 205.25C174.04 197.3 167 200.42 167 200.42C167 200.42 161.1 182.01 146.34 187.5C131.58 192.99 136.8 206.61 136.8 206.61C136.8 206.61 132.94 205.25 130.67 208.2C128.4 211.15 130.67 214.33 130.67 214.33C130.67 214.33 115 215.53 115 224.81H181.38H181.39Z" fill="#3535F3"/>
<path d="M161.21 20.03H253.76C256.28 20.03 258.32 22.07 258.32 24.59V204.22C258.32 206.74 256.28 208.78 253.76 208.78H161.21C158.69 208.78 156.65 206.74 156.65 204.22V24.59C156.65 22.07 158.69 20.03 161.21 20.03Z" fill="#E8E8FC"/>
<path d="M255.84 4H159.13C154.27 4 150.33 7.94 150.33 12.8V216.01C150.33 220.87 154.27 224.81 159.13 224.81H255.84C260.7 224.81 264.64 220.87 264.64 216.01V12.8C264.64 7.94 260.7 4 255.84 4ZM258.32 204.22C258.32 206.74 256.28 208.78 253.76 208.78H161.21C158.69 208.78 156.65 206.74 156.65 204.22V24.59C156.65 22.07 158.69 20.03 161.21 20.03H253.76C256.28 20.03 258.32 22.07 258.32 24.59V204.22Z" fill="#6464FF"/>
<path d="M159.13 224.81H255.84C260.7 224.81 264.64 220.87 264.64 216.01V12.8C264.64 10.67 263.88 8.72001 262.62 7.20001L255.78 20.52C257.28 21.27 258.32 22.81 258.32 24.6V204.23C258.32 206.75 256.28 208.79 253.76 208.79H161.21C160.53 208.79 159.89 208.64 159.31 208.37L152.45 221.74C154.06 223.62 156.46 224.82 159.13 224.82V224.81Z" fill="#000093"/>
<path d="M202.36 14.96C200.73 14.96 199.42 13.64 199.42 12.02C199.42 10.4 200.74 9.07999 202.36 9.07999C203.98 9.07999 205.3 10.4 205.3 12.02C205.3 13.64 203.98 14.96 202.36 14.96Z" fill="#6464FF"/>
<path d="M225.39 12.02C225.39 11.04 224.59 10.24 223.61 10.24H211.9C210.92 10.24 210.12 11.04 210.12 12.02C210.12 13 210.92 13.8 211.9 13.8H223.61C224.59 13.8 225.39 13 225.39 12.02Z" fill="#6464FF"/>
<path d="M169.95 40.14H221.46C222.46 40.14 223.26 40.95 223.26 41.94V93.46C223.26 94.46 222.45 95.26 221.46 95.26H169.95C168.95 95.26 168.15 94.45 168.15 93.46V41.95C168.15 40.95 168.96 40.15 169.95 40.15V40.14Z" fill="#9999FF"/>
<path d="M167.94 38.13H219.46C220.46 38.13 221.26 38.94 221.26 39.93V91.44C221.26 92.44 220.45 93.24 219.46 93.24H167.95C166.95 93.24 166.15 92.43 166.15 91.44V39.93C166.15 38.93 166.96 38.13 167.95 38.13H167.94Z" fill="white"/>
<g style="mix-blend-mode:multiply">
<path d="M221.3 99.08H212.23C211.633 99.08 211.15 99.5636 211.15 100.16V109.7C211.15 110.296 211.633 110.78 212.23 110.78H221.3C221.896 110.78 222.38 110.296 222.38 109.7V100.16C222.38 99.5636 221.896 99.08 221.3 99.08Z" fill="#9999FF"/>
</g>
<path d="M220.18 97.98H211.11C210.513 97.98 210.03 98.4635 210.03 99.06V108.6C210.03 109.196 210.513 109.68 211.11 109.68H220.18C220.776 109.68 221.26 109.196 221.26 108.6V99.06C221.26 98.4635 220.776 97.98 220.18 97.98Z" fill="#6464FF"/>
<path d="M216.56 107.45H212.98V101.4H218.31V105.69" stroke="white" stroke-width="0.54" stroke-miterlimit="10"/>
<path d="M214.36 102.83C214.564 102.83 214.73 102.664 214.73 102.46C214.73 102.256 214.564 102.09 214.36 102.09C214.155 102.09 213.99 102.256 213.99 102.46C213.99 102.664 214.155 102.83 214.36 102.83Z" fill="white"/>
<path d="M216.56 102.46C216.56 102.25 216.73 102.09 216.93 102.09C217.13 102.09 217.3 102.26 217.3 102.46C217.3 102.66 217.13 102.83 216.93 102.83C216.73 102.83 216.56 102.66 216.56 102.46Z" fill="white"/>
<path d="M214.36 102.24V100.88C214.36 100.17 214.94 99.59 215.65 99.59C216.36 99.59 216.94 100.17 216.94 100.88V102.24" stroke="white" stroke-width="0.36" stroke-miterlimit="10"/>
<path d="M218.31 107.45V106.15" stroke="white" stroke-width="0.54" stroke-miterlimit="10"/>
<path d="M218.31 108.74V107.45" stroke="white" stroke-width="0.54" stroke-miterlimit="10"/>
<path d="M218.31 107.45H217.01" stroke="white" stroke-width="0.54" stroke-miterlimit="10"/>
<path d="M219.61 107.45H218.31" stroke="white" stroke-width="0.54" stroke-miterlimit="10"/>
<path d="M193.7 81.46H207.54L206.47 58.82L211.2 64.49L217.46 57.75C217.46 57.75 209.29 47.7 207.82 46.9C206.35 46.1 199.68 45.56 199.68 45.56C199.55 47.7 197.91 51.19 193.71 51.19C189.51 51.19 187.87 47.71 187.74 45.56C187.74 45.56 181.07 46.1 179.6 46.9C178.13 47.7 169.96 57.75 169.96 57.75L176.22 64.49L180.95 58.82L179.88 81.46H193.72H193.7Z" fill="#6464FF"/>
<path d="M233.56 121.44H285.07C286.07 121.44 286.88 122.25 286.88 123.25V174.76C286.88 175.76 286.07 176.57 285.07 176.57H233.56C232.56 176.57 231.76 175.76 231.76 174.77V123.26C231.76 122.26 232.57 121.45 233.57 121.45L233.56 121.44Z" fill="#9999FF"/>
<path d="M283.07 119.44H231.55C230.556 119.44 229.75 120.246 229.75 121.24V172.76C229.75 173.754 230.556 174.56 231.55 174.56H283.07C284.064 174.56 284.87 173.754 284.87 172.76V121.24C284.87 120.246 284.064 119.44 283.07 119.44Z" fill="white"/>
<g style="mix-blend-mode:multiply">
<path d="M275.85 180.38H284.91C285.51 180.38 285.99 180.87 285.99 181.46V191C285.99 191.6 285.51 192.08 284.91 192.08H275.84C275.24 192.08 274.76 191.6 274.76 191V181.46C274.76 180.86 275.25 180.38 275.84 180.38H275.85Z" fill="#9999FF"/>
</g>
<path d="M274.73 179.28H283.79C284.39 179.28 284.87 179.77 284.87 180.36V189.9C284.87 190.5 284.39 190.98 283.79 190.98H274.72C274.12 190.98 273.64 190.5 273.64 189.9V180.36C273.64 179.76 274.12 179.28 274.72 179.28H274.73Z" fill="#6464FF"/>
<path d="M280.17 188.75H276.6V182.7H281.93V186.99" stroke="white" stroke-width="0.54" stroke-miterlimit="10"/>
<path d="M277.6 183.76C277.6 183.55 277.77 183.39 277.97 183.39C278.17 183.39 278.34 183.56 278.34 183.76C278.34 183.96 278.17 184.13 277.97 184.13C277.77 184.13 277.6 183.96 277.6 183.76Z" fill="white"/>
<path d="M280.17 183.76C280.17 183.55 280.34 183.39 280.54 183.39C280.74 183.39 280.91 183.56 280.91 183.76C280.91 183.96 280.74 184.13 280.54 184.13C280.34 184.13 280.17 183.96 280.17 183.76Z" fill="white"/>
<path d="M277.98 183.54V182.18C277.98 181.47 278.56 180.89 279.27 180.89C279.98 180.89 280.56 181.47 280.56 182.18V183.54" stroke="white" stroke-width="0.36" stroke-miterlimit="10"/>
<path d="M281.93 188.75V187.45" stroke="white" stroke-width="0.54" stroke-miterlimit="10"/>
<path d="M281.93 190.05V188.75" stroke="white" stroke-width="0.54" stroke-miterlimit="10"/>
<path d="M281.93 188.75H280.63" stroke="white" stroke-width="0.54" stroke-miterlimit="10"/>
<path d="M283.22 188.75H281.93" stroke="white" stroke-width="0.54" stroke-miterlimit="10"/>
<path d="M257.31 162.76H271.15L270.08 140.12L274.81 145.79L281.07 139.05C281.07 139.05 272.9 129 271.43 128.2C269.96 127.4 263.29 126.86 263.29 126.86C263.16 129 261.52 132.49 257.32 132.49C253.12 132.49 251.48 129.01 251.35 126.86C251.35 126.86 244.68 127.4 243.21 128.2C241.74 129 233.57 139.05 233.57 139.05L239.83 145.79L244.56 140.12L243.49 162.76H257.33H257.31Z" fill="#6464FF"/>
<path d="M233.56 40.14H285.07C286.07 40.14 286.87 40.95 286.87 41.94V93.45C286.87 94.45 286.06 95.26 285.06 95.26H233.55C232.55 95.26 231.75 94.45 231.75 93.46V41.95C231.75 40.95 232.56 40.15 233.55 40.15L233.56 40.14Z" fill="#9999FF"/>
<path d="M231.56 38.13H283.08C284.08 38.13 284.88 38.94 284.88 39.93V91.44C284.88 92.44 284.07 93.24 283.08 93.24H231.57C230.57 93.24 229.76 92.43 229.76 91.43V39.92C229.76 38.92 230.57 38.12 231.56 38.12V38.13Z" fill="white"/>
<g style="mix-blend-mode:multiply">
<path d="M284.92 99.08H275.85C275.254 99.08 274.77 99.5636 274.77 100.16V109.7C274.77 110.296 275.254 110.78 275.85 110.78H284.92C285.516 110.78 286 110.296 286 109.7V100.16C286 99.5636 285.516 99.08 284.92 99.08Z" fill="#9999FF"/>
</g>
<path d="M283.8 97.98H274.73C274.133 97.98 273.65 98.4635 273.65 99.06V108.6C273.65 109.196 274.133 109.68 274.73 109.68H283.8C284.396 109.68 284.88 109.196 284.88 108.6V99.06C284.88 98.4635 284.396 97.98 283.8 97.98Z" fill="#6464FF"/>
<path d="M280.17 107.45H276.6V101.4H281.93V105.69" stroke="white" stroke-width="0.54" stroke-miterlimit="10"/>
<path d="M277.98 102.83C278.184 102.83 278.35 102.664 278.35 102.46C278.35 102.256 278.184 102.09 277.98 102.09C277.776 102.09 277.61 102.256 277.61 102.46C277.61 102.664 277.776 102.83 277.98 102.83Z" fill="white"/>
<path d="M280.55 102.83C280.754 102.83 280.92 102.664 280.92 102.46C280.92 102.256 280.754 102.09 280.55 102.09C280.346 102.09 280.18 102.256 280.18 102.46C280.18 102.664 280.346 102.83 280.55 102.83Z" fill="white"/>
<path d="M277.98 102.24V100.88C277.98 100.17 278.56 99.59 279.27 99.59C279.98 99.59 280.56 100.17 280.56 100.88V102.24" stroke="white" stroke-width="0.36" stroke-miterlimit="10"/>
<path d="M281.93 107.45V106.15" stroke="white" stroke-width="0.54" stroke-miterlimit="10"/>
<path d="M281.93 108.74V107.45" stroke="white" stroke-width="0.54" stroke-miterlimit="10"/>
<path d="M281.93 107.45H280.63" stroke="white" stroke-width="0.54" stroke-miterlimit="10"/>
<path d="M283.22 107.45H281.93" stroke="white" stroke-width="0.54" stroke-miterlimit="10"/>
<path d="M244.71 51.52C240.42 55.67 241.1 60.3 242.64 65.7C244.18 71.1 244.85 81.46 244.85 81.46H248.6C248.6 81.46 248.16 70 250.81 69.11C253.46 68.23 258.35 78.16 259.33 79.7C260.3 81.24 262.37 81.46 264.65 81.46H277.99C277.99 81.46 281.9 78.42 274.78 74.98C270.2 72.77 269.36 72.18 269.36 72.18C269.36 72.18 263.34 71.95 257 65.69C254.53 63.25 251.52 56.57 249.3 54.17C246.84 51.52 244.71 51.52 244.71 51.52Z" fill="#6464FF"/>
<path d="M169.95 121.44H221.46C222.46 121.44 223.26 122.25 223.26 123.24V174.76C223.26 175.76 222.45 176.56 221.46 176.56H169.95C168.95 176.56 168.15 175.75 168.15 174.76V123.25C168.15 122.25 168.96 121.44 169.96 121.44H169.95Z" fill="#9999FF"/>
<path d="M219.46 119.44H167.94C166.946 119.44 166.14 120.246 166.14 121.24V172.76C166.14 173.754 166.946 174.56 167.94 174.56H219.46C220.454 174.56 221.26 173.754 221.26 172.76V121.24C221.26 120.246 220.454 119.44 219.46 119.44Z" fill="white"/>
<g style="mix-blend-mode:multiply">
<path d="M212.24 180.38H221.3C221.9 180.38 222.38 180.87 222.38 181.46V191C222.38 191.6 221.9 192.08 221.3 192.08H212.24C211.64 192.08 211.16 191.59 211.16 191V181.46C211.16 180.86 211.65 180.38 212.24 180.38Z" fill="#9999FF"/>
</g>
<path d="M211.11 179.28H220.17C220.77 179.28 221.25 179.77 221.25 180.36V189.9C221.25 190.5 220.77 190.98 220.17 190.98H211.1C210.5 190.98 210.02 190.5 210.02 189.9V180.36C210.02 179.76 210.5 179.28 211.1 179.28H211.11Z" fill="#6464FF"/>
<path d="M216.56 188.75H212.98V182.7H218.31V186.99" stroke="white" stroke-width="0.54" stroke-miterlimit="10"/>
<path d="M213.99 183.76C213.99 183.55 214.16 183.39 214.36 183.39C214.56 183.39 214.73 183.56 214.73 183.76C214.73 183.96 214.56 184.13 214.36 184.13C214.16 184.13 213.99 183.96 213.99 183.76Z" fill="white"/>
<path d="M216.56 183.76C216.56 183.55 216.73 183.39 216.93 183.39C217.13 183.39 217.3 183.56 217.3 183.76C217.3 183.96 217.13 184.13 216.93 184.13C216.73 184.13 216.56 183.96 216.56 183.76Z" fill="white"/>
<path d="M214.36 183.54V182.18C214.36 181.47 214.94 180.89 215.65 180.89C216.36 180.89 216.94 181.47 216.94 182.18V183.54" stroke="white" stroke-width="0.36" stroke-miterlimit="10"/>
<path d="M218.31 188.75V187.45" stroke="white" stroke-width="0.54" stroke-miterlimit="10"/>
<path d="M218.31 190.05V188.75" stroke="white" stroke-width="0.54" stroke-miterlimit="10"/>
<path d="M218.31 188.75H217.01" stroke="white" stroke-width="0.54" stroke-miterlimit="10"/>
<path d="M219.61 188.75H218.31" stroke="white" stroke-width="0.54" stroke-miterlimit="10"/>
<path d="M181.09 132.83C176.8 136.97 177.48 141.61 179.02 147C180.56 152.4 181.23 162.76 181.23 162.76H184.98C184.98 162.76 184.54 151.3 187.19 150.41C189.84 149.53 194.73 159.46 195.71 161C196.68 162.54 198.75 162.76 201.03 162.76H214.37C214.37 162.76 218.28 159.72 211.16 156.28C206.58 154.07 205.74 153.48 205.74 153.48C205.74 153.48 199.72 153.25 193.38 146.99C190.91 144.55 187.9 137.87 185.68 135.47C183.22 132.82 181.09 132.82 181.09 132.82V132.83Z" fill="#6464FF"/>
<path d="M257.13 224.6C257.13 224.6 251.51 222.04 252.34 218.08C253.17 214.12 257.75 214.53 257.13 211.41C256.51 208.28 253.51 203.41 256.43 199.86C259.35 196.32 264.21 198.44 264.81 192.94C265.3 188.51 267.35 185.37 271.32 186.29C274.99 187.14 277.73 189.99 277.8 196.75C277.87 203.95 282.94 201.93 283.01 207.23C283.07 212.57 278.82 212.57 277.16 216.16C276.37 217.85 278.42 223.8 272.37 224.6H257.14H257.13Z" fill="#3535F3"/>
<path d="M271.12 190.03C271.12 190.03 273.46 210.53 263.18 225.61" stroke="#6464FF" stroke-width="0.61" stroke-miterlimit="10" stroke-linecap="round"/>
<path d="M268.38 224.6C268.38 224.6 267.5 219.71 270.81 217.72C274.13 215.73 277.52 214.18 277.15 210.97C276.78 207.76 277.69 203.98 283 203.91C286.29 203.87 285.05 200.4 288.39 199.71C290.42 199.29 291.76 201.41 292.02 203.49C292.32 205.86 290.97 208.19 292.51 210.12C294.51 212.62 295.32 217.29 291.03 218.61C286.74 219.94 290.56 224 284.72 224.6H268.37H268.38Z" fill="#9999FF"/>
<path d="M288.59 202.93C288.35 209.31 283 220.77 274.88 225.61" stroke="#6464FF" stroke-width="0.61" stroke-miterlimit="10" stroke-linecap="round"/>
<path d="M196 101H166V107H196V101Z" fill="#9999FF"/>
<path d="M258 101H228V107H258V101Z" fill="#9999FF"/>
<path d="M196 183H166V189H196V183Z" fill="#9999FF"/>
<path d="M258 183H228V189H258V183Z" fill="#9999FF"/>
<path d="M36.7202 225.779H298.92V227.09C298.92 238.63 285.7 248 269.42 248H66.2202C49.9402 248 36.7202 238.63 36.7202 227.09V225.779Z" fill="#E8E8FC"/>
<path d="M326.7 225.779H8.95C8.43 225.779 8 225.382 8 224.886C8 224.397 8.43 224 8.95 224H326.7C327.22 224 327.65 224.397 327.65 224.893C327.65 225.382 327.22 225.786 326.7 225.786V225.779Z" fill="#6464FF"/>
<path d="M74.3 176.96V173.41C74.3 171.53 75.82 170 77.71 170C79.59 170 81.12 171.52 81.12 173.41V176.96" stroke="white" stroke-width="0.83" stroke-miterlimit="10" stroke-linecap="round"/>
<path d="M82.12 175.25H67.69L66 195.41H80.42L82.12 175.25Z" fill="#F7AB20"/>
<path d="M84.6499 175.25H82.1199L80.4199 195.41H82.6699H84.0999H86.3399L84.6499 175.25Z" fill="#AC660C"/>
<path d="M80.4199 195.41L83.3799 192.76L86.3399 195.41H80.4199Z" fill="#7F4B10"/>
<path d="M70.8999 177.23C70.8999 176.9 71.1599 176.64 71.4899 176.64C71.8199 176.64 72.0799 176.9 72.0799 177.23C72.0799 177.56 71.8199 177.82 71.4899 177.82C71.1599 177.82 70.8999 177.55 70.8999 177.23Z" fill="#7F4B10"/>
<path d="M77.71 177.23C77.71 176.9 77.97 176.64 78.3 176.64C78.63 176.64 78.89 176.9 78.89 177.23C78.89 177.56 78.63 177.82 78.3 177.82C77.97 177.82 77.71 177.55 77.71 177.23Z" fill="#7F4B10"/>
<path d="M71.49 176.96V173.41C71.49 171.53 73.01 170 74.9 170C76.78 170 78.31 171.52 78.31 173.41V176.96" stroke="white" stroke-width="0.83" stroke-miterlimit="10" stroke-linecap="round"/>
<path d="M92.3 176.96V173.41C92.3 171.53 93.82 170 95.71 170C97.59 170 99.12 171.52 99.12 173.41V176.96" stroke="white" stroke-width="0.83" stroke-miterlimit="10" stroke-linecap="round"/>
<path d="M100.12 175.25H85.69L84 195.41H98.42L100.12 175.25Z" fill="#9999FF"/>
<path d="M102.65 175.25H100.12L98.4199 195.41H100.67H102.1H104.34L102.65 175.25Z" fill="#6464FF"/>
<path d="M98.4199 195.41L101.38 192.76L104.34 195.41H98.4199Z" fill="#3535F3"/>
<path d="M88.8999 177.23C88.8999 176.9 89.1599 176.64 89.4899 176.64C89.8199 176.64 90.0799 176.9 90.0799 177.23C90.0799 177.56 89.8199 177.82 89.4899 177.82C89.1599 177.82 88.8999 177.55 88.8999 177.23Z" fill="#3535F3"/>
<path d="M95.71 177.23C95.71 176.9 95.97 176.64 96.3 176.64C96.63 176.64 96.89 176.9 96.89 177.23C96.89 177.56 96.63 177.82 96.3 177.82C95.97 177.82 95.71 177.55 95.71 177.23Z" fill="#3535F3"/>
<path d="M89.49 176.96V173.41C89.49 171.53 91.01 170 92.9 170C94.78 170 96.31 171.52 96.31 173.41V176.96" stroke="white" stroke-width="0.83" stroke-miterlimit="10" stroke-linecap="round"/>
<path d="M64.5117 194.57H78.9417V205.86H68.0117L64.5117 194.57Z" fill="#9999FF"/>
<path d="M84.6816 194.57H78.9417V205.85H84.6816V194.57Z" fill="#6464FF"/>
<path d="M96.2416 194.57H84.6816V205.85H96.2416V194.57Z" fill="#F7AB20"/>
<path d="M101.442 205.86H96.2417V194.57H103.642L101.442 205.86Z" fill="#AC660C"/>
<path d="M51.812 173.98H55.102C56.652 173.98 58.022 174.97 58.502 176.44L67.772 204.71C68.002 205.41 68.652 205.88 69.382 205.88H100.432C101.262 205.88 101.972 205.28 102.102 204.46L105.762 182.26H60.412" stroke="#141414" stroke-width="2.33" stroke-miterlimit="10" stroke-linecap="round"/>
<path d="M98.0921 205.86H76.3221C69.5821 205.86 64.1221 211.32 64.1221 218.06H96.6821" stroke="#141414" stroke-width="2.27" stroke-miterlimit="10" stroke-linecap="round"/>
<path d="M66.812 221.9C66.812 220.51 67.942 219.39 69.322 219.39C70.702 219.39 71.832 220.52 71.832 221.9C71.832 223.28 70.702 224.41 69.322 224.41C67.942 224.41 66.812 223.28 66.812 221.9Z" fill="#141414"/>
<path d="M68.9721 218.8C69.0121 219.71 68.9621 220.77 68.2521 221.78C67.5421 222.79 69.1721 223.43 70.8121 222.44C72.7621 221.27 73.3021 218.8 73.3021 218.8H68.9721Z" fill="#E8E8FC"/>
<path d="M68.792 221.9C68.792 221.61 69.032 221.37 69.322 221.37C69.612 221.37 69.852 221.61 69.852 221.9C69.852 222.19 69.612 222.43 69.322 222.43C69.032 222.43 68.792 222.19 68.792 221.9Z" fill="#141414"/>
<path d="M84.3921 221.9C84.3921 220.51 85.5221 219.39 86.9021 219.39C88.2821 219.39 89.4121 220.52 89.4121 221.9C89.4121 223.28 88.2821 224.41 86.9021 224.41C85.5221 224.41 84.3921 223.28 84.3921 221.9Z" fill="#141414"/>
<path d="M86.5422 218.8C86.5822 219.71 86.5322 220.77 85.8222 221.78C85.1122 222.79 86.7422 223.43 88.3822 222.44C90.3322 221.27 90.8722 218.8 90.8722 218.8H86.5422Z" fill="#E8E8FC"/>
<path d="M86.3721 221.9C86.3721 221.61 86.6121 221.37 86.9021 221.37C87.1921 221.37 87.4321 221.61 87.4321 221.9C87.4321 222.19 87.1921 222.43 86.9021 222.43C86.6121 222.43 86.3721 222.19 86.3721 221.9Z" fill="#141414"/>
<path d="M62.9919 190.17H104.452" stroke="#141414" stroke-width="1.8" stroke-miterlimit="10" stroke-linecap="round"/>
<path d="M65.582 198.06H103.152" stroke="#141414" stroke-width="1.8" stroke-miterlimit="10" stroke-linecap="round"/>
<path d="M53.952 173.98H48.812" stroke="#D96762" stroke-width="4.07" stroke-miterlimit="10" stroke-linecap="round"/>
<path d="M41.9421 222.74C42.1021 223.03 41.9821 223.62 40.8121 224.11C39.6421 224.6 37.5221 224.39 36.6821 224.23C35.8421 224.06 35.3221 223.82 34.0821 224.08C32.8321 224.34 30.7921 224.23 30.1721 223.7C29.9621 223.45 30.1021 222.94 30.1021 222.94L41.9521 222.74H41.9421Z" fill="#B7EBEB"/>
<path d="M30.762 219.1C30.592 219.95 29.892 221.97 30.092 222.95C30.972 223.69 32.842 223.74 34.252 223.39C35.662 223.04 36.652 223.76 38.412 223.86C40.142 223.96 41.592 223.48 41.942 222.75C42.332 221.96 39.302 221.35 37.242 220.71C34.932 220 33.742 218.86 33.742 218.86L30.762 219.09V219.1Z" fill="#264170"/>
<mask id="mask0_1143_21920" style="mask-type:luminance" maskUnits="userSpaceOnUse" x="30" y="218" width="12" height="6">
<path d="M30.762 219.1C30.592 219.95 29.892 221.97 30.092 222.95C30.972 223.69 32.842 223.74 34.252 223.39C35.662 223.04 36.652 223.76 38.412 223.86C40.142 223.96 41.592 223.48 41.942 222.75C42.332 221.96 39.302 221.35 37.242 220.71C34.932 220 33.742 218.86 33.742 218.86L30.762 219.09V219.1Z" fill="white"/>
</mask>
<g mask="url(#mask0_1143_21920)">
<path d="M34.4419 220.75C34.4419 220.75 34.8519 219.59 35.4119 219.21" stroke="#B7EBEB" stroke-width="0.55" stroke-miterlimit="10" stroke-linecap="round"/>
<path d="M36.012 221.37C36.012 221.37 36.422 220.21 36.982 219.83" stroke="#B7EBEB" stroke-width="0.55" stroke-miterlimit="10" stroke-linecap="round"/>
<path d="M37.5818 221.99C37.5818 221.99 37.9918 220.83 38.5518 220.45" stroke="#B7EBEB" stroke-width="0.55" stroke-miterlimit="10" stroke-linecap="round"/>
</g>
<path d="M30.7622 215.68V219.09C30.7622 219.09 31.1622 219.22 31.3222 219.41C31.4822 219.6 31.7122 220.25 31.9922 220.26C33.0922 220.31 33.7422 218.85 33.7422 218.85L34.1522 215.75L30.7622 215.67V215.68Z" fill="#F09E90"/>
<path d="M13.9521 223.5C13.7521 223.77 13.1721 223.91 12.2321 223.06C11.2921 222.21 10.5721 220.21 10.3521 219.37C10.1421 218.54 10.1421 217.97 9.37208 216.96C8.60208 215.95 7.83208 214.05 8.03208 213.27C8.16208 212.97 8.69208 212.88 8.69208 212.88L13.9521 223.5Z" fill="#B7EBEB"/>
<path d="M12.4521 211.83C11.6021 212.04 9.49211 212.28 8.69211 212.88C8.40211 213.99 9.15211 215.71 10.0821 216.82C11.0021 217.94 10.7821 219.14 11.4421 220.78C12.0921 222.39 13.1421 223.49 13.9521 223.5C14.8321 223.5 14.0921 220.51 13.7721 218.38C13.4221 215.99 13.9421 214.43 13.9421 214.43L12.4521 211.84V211.83Z" fill="#264170"/>
<mask id="mask1_1143_21920" style="mask-type:luminance" maskUnits="userSpaceOnUse" x="8" y="211" width="7" height="13">
<path d="M12.4521 211.83C11.6021 212.04 9.49211 212.28 8.69211 212.88C8.40211 213.99 9.15211 215.71 10.0821 216.82C11.0021 217.94 10.7821 219.14 11.4421 220.78C12.0921 222.39 13.1421 223.49 13.9521 223.5C14.8321 223.5 14.0921 220.51 13.7721 218.38C13.4221 215.99 13.9421 214.43 13.9421 214.43L12.4521 211.84V211.83Z" fill="white"/>
</mask>
<g mask="url(#mask1_1143_21920)">
<path d="M12.5422 215.87C12.5422 215.87 13.7722 215.75 14.3522 216.09" stroke="#B7EBEB" stroke-width="0.55" stroke-miterlimit="10" stroke-linecap="round"/>
<path d="M12.6523 217.55C12.6523 217.55 13.8823 217.43 14.4623 217.77" stroke="#B7EBEB" stroke-width="0.55" stroke-miterlimit="10" stroke-linecap="round"/>
<path d="M12.7622 219.23C12.7622 219.23 13.9922 219.11 14.5722 219.45" stroke="#B7EBEB" stroke-width="0.55" stroke-miterlimit="10" stroke-linecap="round"/>
</g>
<path d="M14.352 209.89L12.462 211.83C12.462 211.83 12.512 212.24 12.412 212.48C12.312 212.71 11.822 213.19 11.932 213.45C12.362 214.46 13.952 214.43 13.952 214.43L16.682 212.29L14.352 209.9V209.89Z" fill="#F09E90"/>
<path d="M37.352 167.08C33.5321 167.08 30.682 167.37 30.682 167.37C29.462 167.9 27.362 170.68 26.742 172.45C26.122 174.22 26.372 177.16 26.702 178.68C28.492 187.13 31.492 192 32.192 195.35C32.622 197.4 30.592 196.3 30.592 201.49C30.592 206.14 30.762 216.05 30.762 216.05C30.762 216.05 32.192 216.88 34.082 216.31C34.082 216.31 36.952 199.97 37.262 198.1C37.772 195.07 37.952 193.8 38.002 188.55C38.082 181.17 37.342 167.09 37.342 167.09L37.352 167.08Z" fill="#1ECCB0"/>
<path d="M16.6721 212.28C16.6721 212.28 28.1821 200.59 29.0721 199.61C29.9621 198.63 33.5721 179.25 33.8121 177.8C33.8121 177.8 37.4221 174.12 37.5321 171.07L25.8121 165.2C25.3121 167.07 24.9021 167.14 24.5721 172.03C24.4021 174.52 23.8521 184.8 23.4621 196.96C23.4621 196.96 22.2521 197.61 20.4221 199.39C18.9221 200.85 14.3621 209.87 14.3621 209.87C14.3621 209.87 14.9121 211.67 16.6921 212.26L16.6721 212.28Z" fill="#A7F6E9"/>
<path d="M24.562 172.04C24.392 174.53 23.8421 184.81 23.4521 196.97C23.4521 196.97 22.2421 197.62 20.4121 199.4C18.9121 200.86 14.3521 209.88 14.3521 209.88C14.3521 209.88 14.4921 210.33 14.8421 210.85C15.9421 208.57 18.9021 203.08 20.3121 201.13C22.1021 198.66 24.2021 197.92 24.5721 197.61C24.942 197.3 24.762 196.25 24.882 193.91C25.002 191.57 26.382 171.32 26.382 171.32L24.8621 169.01C24.7621 169.76 24.6621 170.72 24.5721 172.03L24.562 172.04Z" fill="#1E7B74"/>
<path d="M36.7621 173.71C36.7621 173.71 34.4621 175.78 30.7521 175.78C27.0421 175.78 24.4421 174.14 24.4421 174.14L24.5721 172.03L36.7621 173.7V173.71Z" fill="#1E7B74"/>
<path d="M37.102 147.36C37.352 147.63 37.432 148.14 36.992 149.7L31.532 145.11L37.102 147.36Z" fill="#4BA698"/>
<path d="M41.6221 138.68C41.7321 139.12 42.4321 141.06 42.6721 141.63C42.9121 142.2 41.3921 141.91 41.3921 141.91L41.6221 138.68Z" fill="#AD5E66"/>
<path d="M32.6121 145.11L36.5821 148.71L38.0121 144.97L34.1221 140.86L32.6121 145.11Z" fill="#F09E90"/>
<path d="M37.3822 146.62C37.3822 146.62 33.5422 143.68 34.1222 140.87L38.0122 144.98L37.3822 146.62Z" fill="#AD5E66"/>
<path d="M34.142 140.86C34.142 140.86 34.222 141.48 34.362 141.97C34.492 142.45 37.592 144.85 38.482 145.23C39.372 145.6 40.652 145.76 41.272 142.61C41.892 139.46 41.862 136.58 40.192 134.61C38.522 132.64 35.212 133.35 33.412 134.97C31.612 136.59 31.852 140.84 34.142 140.87V140.86Z" fill="#F09E90"/>
<path d="M32.8497 140.847C33.0192 141.024 33.2229 141.172 33.4625 141.268L33.3288 141.638C33.1852 141.459 33.0177 141.204 32.8497 140.847ZM32.2241 138.585C32.179 138.811 32.1679 139.052 32.1879 139.293C32.014 138.865 31.8445 138.418 31.705 137.977C31.5547 137.501 31.446 137.051 31.4044 136.655C31.3623 136.254 31.3942 135.953 31.482 135.746C31.8004 135.001 32.5797 134.546 33.4705 134.382C33.531 134.371 33.582 134.367 33.6437 134.361L33.6453 134.361C33.6481 134.361 33.6511 134.36 33.6543 134.36C33.7077 134.355 33.7997 134.347 33.8904 134.322C34.0042 134.291 34.1198 134.234 34.2248 134.135C34.321 134.044 34.3878 133.936 34.4392 133.834C34.7853 133.142 35.0188 132.698 35.5628 132.383L35.5639 132.382C36.0865 132.077 36.4798 131.974 37.0974 131.929C37.4063 131.908 37.745 131.941 38.113 131.999C38.2923 132.027 38.4721 132.06 38.6568 132.094L38.6693 132.096C38.855 132.13 39.0463 132.165 39.2339 132.194C40.677 132.429 42.1458 132.458 43.5935 132.281C43.37 133.07 42.7104 133.545 41.7654 133.879L40.9753 134.158L41.5958 134.72L41.5959 134.72L41.596 134.72L41.5961 134.72L41.5963 134.721L41.5981 134.722L41.6093 134.733C41.6198 134.742 41.6358 134.758 41.6562 134.778C41.6972 134.818 41.755 134.877 41.8202 134.949C41.954 135.096 42.1036 135.283 42.2066 135.467C42.3197 135.67 42.324 135.777 42.3175 135.805C42.3175 135.805 42.3175 135.805 42.3175 135.805C42.3174 135.807 42.3168 135.814 42.2977 135.83C42.271 135.854 42.2041 135.898 42.0598 135.938C41.7594 136.019 41.3047 136.032 40.7485 135.983C40.2033 135.936 39.6066 135.835 39.0478 135.718C38.4905 135.602 37.9794 135.472 37.6071 135.372C37.4213 135.322 37.2706 135.279 37.1669 135.249C37.1151 135.234 37.075 135.222 37.0481 135.214L37.0179 135.205L37.0106 135.203L37.009 135.202L37.0087 135.202L37.0087 135.202L37.0086 135.202L37.0085 135.202L36.5643 136.081C36.5638 136.081 36.5638 136.081 36.5638 136.081L36.5639 136.081L36.564 136.082L36.5665 136.083L36.5779 136.092C36.5883 136.1 36.6041 136.112 36.6243 136.128C36.6649 136.16 36.7229 136.206 36.7905 136.263C36.9277 136.378 37.0965 136.529 37.2408 136.685C37.3084 136.759 37.3616 136.823 37.402 136.879C37.3185 136.882 37.2171 136.879 37.0992 136.867C36.8176 136.84 36.4867 136.77 36.1608 136.685C35.8378 136.601 35.5336 136.505 35.3093 136.429C35.1975 136.392 35.1064 136.36 35.0436 136.337C35.0123 136.326 34.9881 136.317 34.972 136.311L34.9541 136.304L34.9499 136.303L34.9491 136.302L34.9491 136.302L34.949 136.302L34.949 136.302L34.2938 136.054L34.2722 136.755L34.2542 137.341C33.8736 137.252 33.3344 137.226 32.8391 137.568C32.4817 137.812 32.2991 138.208 32.2241 138.585ZM43.6675 131.875C43.6675 131.875 43.6674 131.876 43.6672 131.878L43.6675 131.875Z" fill="#141414" stroke="#141414"/>
<path d="M34.5319 130C34.5319 130 32.6419 132.21 34.3719 134.54C34.3719 134.54 32.1919 133.85 32.3119 131.63" stroke="#141414" stroke-width="0.82" stroke-miterlimit="10" stroke-linecap="round"/>
<path d="M36.552 149.32C36.552 149.32 37.112 147.97 36.872 147.61C36.062 146.43 33.402 142.93 33.032 143.27C32.662 143.61 31.542 145.11 31.542 145.11L36.552 149.32Z" fill="#0E5C4F"/>
<path d="M36.992 149.7C37.332 151.27 37.302 153.85 37.512 159.34C37.652 162.87 38.002 173.11 38.002 173.11C38.002 173.11 35.302 174.88 30.762 174.52C26.422 174.17 24.552 172.04 24.552 172.04C24.552 172.04 25.002 157.64 26.432 151.97C28.532 146.13 31.532 145.11 31.532 145.11L36.992 149.7Z" fill="#0E5C4F"/>
<path d="M37.7722 166.28L28.4922 153.13C28.8022 155.26 33.4322 166.97 33.4322 166.97L34.1822 166.91C34.1822 166.91 35.1122 169.07 35.5222 169.71C35.7922 170.13 37.1622 170.52 37.9322 170.76C37.8922 169.52 37.8322 167.93 37.7722 166.29V166.28Z" fill="#4BA698"/>
<path d="M31.542 145.11L36.552 149.32L37.002 149.69C37.152 149.97 37.182 150.23 37.122 150.45L31.542 145.1V145.11Z" fill="#4BA698"/>
<path d="M39.9018 138.86C39.8918 138.64 39.7018 138.48 39.4818 138.49C39.2618 138.5 39.1018 138.69 39.1118 138.91C39.1218 139.13 39.3118 139.29 39.5318 139.28C39.7518 139.27 39.9118 139.08 39.9018 138.86Z" fill="#061C42"/>
<path d="M40.2319 137.83L38.4319 138.4C38.4319 138.4 38.4719 137.78 39.0919 137.59C39.8519 137.36 40.2319 137.82 40.2319 137.82V137.83Z" fill="#061C42"/>
<path d="M33.502 138.47C33.742 138.38 34.112 138.4 34.322 138.56C34.402 138.62 34.272 138.75 34.192 138.72C33.782 138.57 33.272 138.54 33.062 139.03C33.052 139.06 33.032 139.03 33.032 139.01C33.082 138.74 33.232 138.56 33.492 138.47H33.502Z" fill="#AD5E66"/>
<path d="M33.6921 138.5C33.6921 138.5 33.8421 138.59 33.8321 138.62C33.7621 138.65 33.6621 138.73 33.6021 138.82C33.5121 138.98 33.4921 139.11 33.5021 139.29C33.5321 139.7 33.7721 140 34.1721 140.09C34.1721 140.09 34.1921 140.11 34.1721 140.12C33.8221 140.21 33.4221 139.84 33.3421 139.53C33.2521 139.18 33.2721 138.69 33.6821 138.5H33.6921Z" fill="#AD5E66"/>
<path d="M28.322 151.97C27.872 149.42 32.742 147.8 34.102 151.06C35.442 154.26 38.842 165.26 38.842 165.26C38.842 165.26 48.832 171.55 49.822 171.46C51.162 171.33 54.502 174.98 54.102 175.56C53.712 176.12 52.012 176.6 50.822 176.26C49.832 175.98 48.882 174.21 48.502 173.92C46.572 173.27 37.312 170.21 36.082 169.14C34.852 168.07 28.622 153.65 28.322 151.98V151.97Z" fill="#F09E90"/>
<path d="M33.7521 149.81C34.0821 150.55 34.8321 152.14 35.5621 154.64C36.1221 156.55 38.6121 164.51 38.6121 164.51C38.6121 164.51 36.9921 166.52 34.6421 166.72C34.6421 166.72 32.8021 162.95 31.6721 160.61C30.5421 158.27 28.6621 153.64 28.1821 152.27C27.7021 150.89 29.2421 148.5 30.1721 148.31C31.0921 148.12 33.1221 148.39 33.7621 149.81H33.7521Z" fill="#0E5C4F"/>
<path d="M307.476 149.483C305.816 149.863 305.196 150.573 304.036 153.713C302.876 156.853 300.456 163.973 300.116 164.353C300.116 164.353 291.286 163.493 289.076 163.153C287.936 162.973 286.396 162.943 284.996 163.003C284.096 163.043 282.506 163.163 281.856 163.283C280.116 163.593 281.346 164.943 282.726 165.813C284.556 166.973 287.626 165.853 289.896 166.043C292.166 166.233 300.356 168.693 301.476 168.253C302.596 167.813 307.316 158.133 307.316 158.133L307.476 149.483Z" fill="#CF7F7C"/>
<path d="M289.076 163.153C287.936 163.003 288.256 162.653 287.426 162.243C286.596 161.833 285.946 161.903 285.306 161.613C284.646 161.313 284.696 161.963 285.116 162.313C285.306 162.463 285.746 162.593 285.936 162.693C286.396 162.933 285.066 163.003 285.066 163.003L289.066 163.153H289.076Z" fill="#CF7F7C"/>
<path d="M290.086 220.643C289.866 220.893 289.856 221.503 290.906 222.233C291.956 222.963 294.076 223.223 294.936 223.243C295.796 223.263 296.356 223.133 297.526 223.663C298.696 224.193 300.726 224.523 301.446 224.143C301.706 223.943 301.676 223.413 301.676 223.413L290.076 220.653L290.086 220.643Z" fill="#B7EBEB"/>
<path d="M301.856 219.473C301.836 220.353 302.086 222.483 301.676 223.393C300.656 223.933 298.806 223.573 297.496 222.923C296.186 222.273 295.066 222.763 293.306 222.483C291.586 222.203 290.266 221.423 290.076 220.633C289.866 219.773 292.976 219.823 295.136 219.653C297.556 219.453 298.976 218.593 298.976 218.593L301.856 219.463V219.473Z" fill="#08332C"/>
<mask id="mask2_1143_21920" style="mask-type:luminance" maskUnits="userSpaceOnUse" x="290" y="219" width="12" height="6">
<path d="M301.79 219.88C301.77 220.76 302.02 222.89 301.61 223.8C300.59 224.34 298.74 223.98 297.43 223.33C296.12 222.68 295 223.17 293.24 222.89C291.52 222.61 290.2 221.83 290.01 221.04C289.8 220.18 292.91 220.23 295.07 220.06C297.49 219.86 298.91 219 298.91 219L301.79 219.87V219.88Z" fill="white"/>
</mask>
<g mask="url(#mask2_1143_21920)">
<path d="M297.876 220.303C297.876 220.303 297.716 219.073 297.256 218.583" stroke="#B7EBEB" stroke-width="0.56" stroke-miterlimit="10" stroke-linecap="round"/>
<path d="M296.206 220.573C296.206 220.573 296.046 219.343 295.586 218.853" stroke="#B7EBEB" stroke-width="0.56" stroke-miterlimit="10" stroke-linecap="round"/>
<path d="M294.526 220.843C294.526 220.843 294.366 219.613 293.906 219.123" stroke="#B7EBEB" stroke-width="0.56" stroke-miterlimit="10" stroke-linecap="round"/>
</g>
<path d="M302.466 216.413L301.846 219.473C301.846 219.473 301.426 219.513 301.226 219.673C301.026 219.823 300.666 220.413 300.386 220.363C299.296 220.173 298.966 218.603 298.966 218.603L299.436 210.453L302.456 216.423L302.466 216.413Z" fill="#F09E90"/>
<path d="M316.926 223.763C316.976 224.093 317.426 224.493 318.666 224.173C319.906 223.853 321.476 222.403 322.056 221.763C322.636 221.123 322.896 220.613 324.056 220.063C325.216 219.513 326.786 218.183 326.966 217.393C326.986 217.063 326.556 216.743 326.556 216.743L316.926 223.773V223.763Z" fill="#B7EBEB"/>
<path d="M323.676 214.053C324.336 214.633 326.116 215.833 326.546 216.733C326.296 217.863 324.816 219.033 323.476 219.603C322.136 220.173 321.776 221.353 320.426 222.503C319.096 223.633 317.646 224.123 316.926 223.753C316.136 223.353 318.196 221.023 319.466 219.263C320.886 217.293 321.156 215.663 321.156 215.663L323.686 214.043L323.676 214.053Z" fill="#08332C"/>
<mask id="mask3_1143_21920" style="mask-type:luminance" maskUnits="userSpaceOnUse" x="316" y="214" width="11" height="10">
<path d="M323.676 214.053C324.336 214.633 326.116 215.833 326.546 216.733C326.296 217.863 324.816 219.033 323.476 219.603C322.136 220.173 321.776 221.353 320.426 222.503C319.096 223.633 317.646 224.123 316.926 223.753C316.136 223.353 318.196 221.023 319.466 219.263C320.886 217.293 321.156 215.663 321.156 215.663L323.686 214.043L323.676 214.053Z" fill="white"/>
</mask>
<g mask="url(#mask3_1143_21920)">
<path d="M321.737 217.613C321.737 217.613 320.697 216.933 320.027 216.963" stroke="#B7EBEB" stroke-width="0.56" stroke-miterlimit="10" stroke-linecap="round"/>
<path d="M320.846 219.063C320.846 219.063 319.806 218.383 319.136 218.413" stroke="#B7EBEB" stroke-width="0.56" stroke-miterlimit="10" stroke-linecap="round"/>
<path d="M319.967 220.523C319.967 220.523 318.927 219.843 318.257 219.873" stroke="#B7EBEB" stroke-width="0.56" stroke-miterlimit="10" stroke-linecap="round"/>
</g>
<path d="M322.776 211.973L323.676 214.063C323.676 214.063 323.436 214.403 323.426 214.663C323.416 214.923 323.616 215.573 323.406 215.753C322.546 216.453 321.146 215.683 321.146 215.683L319.706 212.503L322.776 211.973Z" fill="#F09E90"/>
<path d="M302.186 168.113C305.926 167.253 309.186 165.273 309.186 165.273C310.506 165.523 312.616 169.253 313.616 170.833C314.626 172.423 311.086 177.403 310.866 178.403C309.446 184.913 308.186 189.493 307.266 192.453C306.636 194.463 305.716 196.923 305.616 197.693C306.546 200.563 302.566 216.613 302.566 216.613C302.566 216.613 300.366 217.303 299.076 215.833C299.076 215.833 299.806 198.413 299.866 196.503C300.056 190.233 300.956 185.653 301.116 182.963C301.776 171.833 302.186 168.083 302.186 168.083V168.113Z" fill="#0E5C4F"/>
<path d="M320.116 213.643C320.116 213.643 311.356 199.003 310.606 197.613C309.976 196.443 306.986 178.423 306.756 176.963C306.756 176.963 302.326 171.383 302.216 168.313L310.416 166.053C310.916 167.933 313.566 167.963 315.586 172.463C317.346 176.383 316.856 184.783 315.946 195.573C315.946 195.573 317.456 196.373 318.216 198.533C319.256 201.483 322.926 212.333 322.926 212.333C322.926 212.333 322.026 213.703 320.106 213.653L320.116 213.643Z" fill="#A7F6E9"/>
<path d="M322.926 212.323C322.926 212.323 319.256 201.473 318.216 198.523C317.456 196.363 315.946 195.563 315.946 195.563C316.856 184.783 317.336 176.383 315.586 172.453C313.566 167.953 310.916 167.923 310.416 166.043L302.216 168.303C302.256 169.453 302.896 170.953 303.686 172.373C305.146 172.213 309.136 171.693 311.386 170.513C311.386 170.513 313.546 173.423 314.176 178.853C314.796 184.283 314.836 193.743 314.766 195.653C314.736 196.443 315.776 196.443 317.206 199.233C318.376 201.513 321.166 210.173 322.246 212.993C322.706 212.653 322.936 212.313 322.936 212.313L322.926 212.323Z" fill="#0E5C4F"/>
<path d="M310.436 148.323C310.436 148.323 310.886 148.643 311.326 148.643C311.986 148.943 313.656 150.103 314.036 150.823C314.966 152.103 314.826 154.823 313.636 158.273C313.036 159.993 310.336 163.463 312.366 168.003C312.366 168.003 306.966 170.893 302.026 168.463C301.946 165.973 302.556 164.503 302.576 161.753C301.876 160.993 301.186 159.603 301.126 158.703C300.896 155.353 304.246 154.323 306.856 150.593C307.586 149.553 308.136 149.603 309.126 148.843C309.776 148.343 310.426 148.343 310.426 148.343L310.436 148.323Z" fill="#F7AB20"/>
<path d="M313.636 158.263C313.636 158.263 313.666 158.183 313.676 158.143L313.336 156.823L311.716 152.963L310.066 153.243C309.886 155.363 310.136 159.043 310.756 161.733C310.996 162.763 311.316 163.783 311.616 164.653C311.616 161.763 313.186 159.543 313.626 158.273L313.636 158.263Z" fill="#AC660C"/>
<path d="M306.846 150.543C306.866 151.043 305.936 152.133 306.166 152.893C306.396 153.653 307.506 153.073 308.356 152.213C309.206 151.353 310.166 149.373 311.326 148.643C311.326 148.643 310.846 148.343 310.746 148.143L306.856 150.543H306.846Z" fill="#F09E90"/>
<path d="M308.826 135.733C308.826 135.733 307.806 133.583 304.436 134.073C301.066 134.563 300.576 138.443 300.846 139.753C301.256 141.723 302.976 142.683 302.976 142.683L308.826 135.733Z" fill="#141414"/>
<path d="M308.646 144.703L310.116 146.013L310.766 148.213C310.766 148.213 309.846 148.833 309.486 149.363C309.056 150.013 308.086 151.583 306.916 151.723C306.916 151.723 307.036 150.303 306.856 149.543C306.676 148.783 306.146 147.273 306.146 147.273L308.646 144.703Z" fill="#F09E90"/>
<path d="M308.646 144.703C308.646 144.703 308.856 145.603 308.806 146.233C308.756 146.863 308.126 147.833 306.686 148.893C306.456 148.163 306.156 147.273 306.156 147.273L308.656 144.703H308.646Z" fill="#AD5E66"/>
<path d="M302.456 141.933C302.176 142.923 301.046 144.313 301.296 144.563C301.506 144.773 302.466 144.723 302.466 144.723C302.466 144.723 303.176 144.043 302.936 143.073C302.696 142.113 302.456 141.933 302.456 141.933Z" fill="#AD5E66"/>
<path d="M304.916 135.743C303.546 135.873 302.176 137.763 302.196 139.493C302.226 141.223 302.616 142.163 302.516 143.383C302.406 144.603 302.416 145.783 302.926 147.053C303.266 147.903 304.156 148.093 305.336 147.813C306.416 147.553 307.896 146.513 308.236 146.183C308.576 145.853 308.646 144.713 308.646 144.713C308.646 144.713 310.266 144.473 311.006 142.993C311.746 141.513 311.616 135.143 304.926 135.753L304.916 135.743Z" fill="#F09E90"/>
<path d="M308.646 144.703C308.646 144.703 310.116 144.123 309.986 142.483C309.846 140.803 307.586 140.743 307.676 142.223C307.676 142.343 306.796 141.913 306.746 141.883C306.376 141.643 306.026 141.383 305.686 141.103C305.006 140.533 304.396 139.863 303.956 139.093C303.366 138.053 303.086 136.793 303.326 135.613C303.456 134.993 303.596 134.863 304.156 134.653C304.746 134.433 305.366 134.323 305.996 134.403C307.806 134.623 308.816 135.733 308.816 135.733C308.816 135.733 310.506 135.033 311.766 136.033C313.026 137.033 313.926 139.613 312.836 142.283C311.756 144.953 310.096 146.023 310.096 146.023L308.626 144.713L308.646 144.703Z" fill="#141414"/>
<path d="M308.826 135.733C308.826 135.733 309.806 135.093 311.306 135.433C312.796 135.763 314.066 137.733 314.096 140.493C314.126 143.253 313.856 145.803 312.966 146.803C312.066 147.803 310.336 148.893 308.456 148.703C308.456 148.703 309.526 146.613 308.646 144.713C308.646 144.713 309.666 145.363 310.606 144.093C311.536 142.833 308.836 135.743 308.836 135.743L308.826 135.733Z" fill="#141414"/>
<path d="M303.646 142.363C303.656 142.143 303.846 141.973 304.066 141.993C304.286 142.003 304.456 142.193 304.436 142.413C304.426 142.633 304.236 142.803 304.016 142.783C303.796 142.773 303.626 142.583 303.646 142.363Z" fill="#061C42"/>
<path d="M303.316 141.323L305.126 141.903C305.126 141.903 305.086 141.283 304.466 141.093C303.706 140.863 303.316 141.323 303.316 141.323Z" fill="#061C42"/>
<path d="M309.056 142.133C308.806 142.043 308.436 142.053 308.236 142.223C308.156 142.283 308.296 142.413 308.366 142.383C308.786 142.233 309.296 142.203 309.496 142.693C309.506 142.723 309.526 142.693 309.526 142.673C309.476 142.403 309.326 142.223 309.056 142.123V142.133Z" fill="#AD5E66"/>
<path d="M308.856 142.173C308.856 142.173 308.706 142.263 308.716 142.303C308.786 142.333 308.896 142.413 308.946 142.503C309.036 142.663 309.056 142.793 309.046 142.973C309.016 143.393 308.776 143.693 308.376 143.783C308.376 143.783 308.356 143.803 308.376 143.813C308.726 143.903 309.126 143.533 309.206 143.223C309.296 142.873 309.276 142.373 308.866 142.183L308.856 142.173Z" fill="#AD5E66"/>
<path d="M299.156 169.393C299.676 169.363 299.936 169.263 299.666 169.043C299.186 168.653 298.756 168.393 298.686 167.933C298.596 167.373 299.156 167.753 299.466 167.913C300.246 168.303 301.276 168.513 301.926 169.163C303.806 168.673 308.776 166.523 312.256 164.773C312.256 164.773 310.326 156.793 310.116 154.723C309.906 152.723 310.166 150.673 312.406 150.173C313.486 149.923 314.176 151.163 314.566 153.753C314.956 156.343 316.066 165.423 315.936 166.413C315.806 167.403 314.716 168.143 310.766 169.413C308.536 170.123 302.166 171.713 302.166 171.713C302.166 171.713 301.546 172.063 300.546 172.283" fill="#F09E90"/>
<path d="M295.536 176.093V172.543C295.536 170.663 297.056 169.133 298.946 169.133C300.826 169.133 302.356 170.653 302.356 172.543V176.093" stroke="white" stroke-width="0.83" stroke-miterlimit="10" stroke-linecap="round"/>
<path d="M303.356 174.383H288.926L287.236 194.543H301.656L303.356 174.383Z" fill="#F7AB20"/>
<path d="M305.886 174.383H303.356L301.656 194.543H303.906H305.336H307.576L305.886 174.383Z" fill="#AC660C"/>
<path d="M301.656 194.543L304.616 191.893L307.576 194.543H301.656Z" fill="#7F4B10"/>
<path d="M292.136 176.363C292.136 176.033 292.396 175.773 292.726 175.773C293.056 175.773 293.316 176.033 293.316 176.363C293.316 176.693 293.056 176.953 292.726 176.953C292.396 176.953 292.136 176.683 292.136 176.363Z" fill="#7F4B10"/>
<path d="M298.946 176.363C298.946 176.033 299.206 175.773 299.536 175.773C299.866 175.773 300.126 176.033 300.126 176.363C300.126 176.693 299.866 176.953 299.536 176.953C299.206 176.953 298.946 176.683 298.946 176.363Z" fill="#7F4B10"/>
<path d="M292.726 176.093V172.543C292.726 170.663 294.246 169.133 296.136 169.133C298.016 169.133 299.546 170.653 299.546 172.543V176.093" stroke="white" stroke-width="0.83" stroke-miterlimit="10" stroke-linecap="round"/>
<path d="M300.546 172.263C299.696 172.453 298.586 172.543 297.326 172.263C297.096 172.213 296.876 172.153 296.656 172.063C295.656 171.693 294.386 170.653 294.916 169.443C295.056 169.133 295.246 168.823 295.566 168.683C295.956 168.513 296.406 168.673 296.806 168.833C297.226 169.003 297.616 169.193 298.056 169.293C298.376 169.363 298.846 169.353 299.156 169.393" fill="#F09E90"/>
<rect x="304" y="97" width="24" height="24" rx="12" fill="#E8E8FC"/>
<path d="M313.667 113.667C313.469 113.667 313.275 113.725 313.111 113.835C312.947 113.945 312.818 114.101 312.743 114.284C312.667 114.467 312.647 114.668 312.686 114.862C312.724 115.056 312.82 115.234 312.959 115.374C313.099 115.514 313.278 115.609 313.471 115.647C313.665 115.686 313.867 115.666 314.049 115.591C314.232 115.515 314.388 115.387 314.498 115.222C314.608 115.058 314.667 114.864 314.667 114.667C314.667 114.401 314.561 114.147 314.374 113.96C314.186 113.772 313.932 113.667 313.667 113.667ZM319.667 113.667C319.469 113.667 319.275 113.725 319.111 113.835C318.947 113.945 318.818 114.101 318.743 114.284C318.667 114.467 318.647 114.668 318.686 114.862C318.724 115.056 318.82 115.234 318.959 115.374C319.099 115.514 319.278 115.609 319.471 115.647C319.665 115.686 319.867 115.666 320.049 115.591C320.232 115.515 320.388 115.387 320.498 115.222C320.608 115.058 320.667 114.864 320.667 114.667C320.667 114.401 320.561 114.147 320.374 113.96C320.186 113.772 319.932 113.667 319.667 113.667ZM322.413 105.553C322.29 105.382 322.128 105.243 321.94 105.147C321.752 105.051 321.544 105 321.333 105H312.387L312.113 103.987C312.037 103.703 311.868 103.452 311.634 103.273C311.401 103.095 311.114 102.999 310.82 103H310C309.823 103 309.654 103.07 309.529 103.195C309.403 103.32 309.333 103.49 309.333 103.667C309.333 103.843 309.403 104.013 309.529 104.138C309.654 104.263 309.823 104.333 310 104.333H310.82L312.707 111.32C312.778 111.609 312.944 111.866 313.179 112.05C313.413 112.233 313.702 112.333 314 112.333H319.78C320.059 112.332 320.331 112.243 320.557 112.08C320.783 111.916 320.952 111.685 321.04 111.42L322.6 106.753C322.666 106.553 322.684 106.339 322.651 106.131C322.619 105.922 322.537 105.724 322.413 105.553Z" fill="#3535F3"/>
<path d="M271 55.0001C271.088 55.0006 271.175 54.9838 271.256 54.9506C271.337 54.9175 271.411 54.8686 271.474 54.8068L276.14 50.1401C276.266 50.0146 276.336 49.8443 276.336 49.6668C276.336 49.4893 276.266 49.319 276.14 49.1935C276.015 49.0679 275.844 48.9974 275.667 48.9974C275.489 48.9974 275.319 49.0679 275.194 49.1935L270.527 53.8601C270.464 53.9221 270.415 53.9958 270.381 54.0771C270.347 54.1583 270.33 54.2455 270.33 54.3335C270.33 54.4215 270.347 54.5086 270.381 54.5899C270.415 54.6711 270.464 54.7448 270.527 54.8068C270.589 54.8686 270.663 54.9175 270.744 54.9506C270.825 54.9838 270.912 55.0006 271 55.0001ZM265.474 53.1935C265.348 53.0679 265.178 52.9974 265 52.9974C264.823 52.9974 264.652 53.0679 264.527 53.1935C264.401 53.319 264.331 53.4893 264.331 53.6668C264.331 53.8443 264.401 54.0146 264.527 54.1401L267.86 57.4735C267.922 57.536 267.996 57.5855 268.077 57.6194C268.158 57.6532 268.246 57.6707 268.334 57.6707C268.422 57.6707 268.509 57.6532 268.59 57.6194C268.671 57.5855 268.745 57.536 268.807 57.4735C268.869 57.4115 268.919 57.3378 268.953 57.2565C268.987 57.1753 269.004 57.0881 269.004 57.0001C269.004 56.9121 268.987 56.825 268.953 56.7437C268.919 56.6625 268.869 56.5888 268.807 56.5268L265.474 53.1935ZM277.474 50.5268C277.412 50.4643 277.338 50.4147 277.257 50.3809C277.175 50.347 277.088 50.3296 277 50.3296C276.912 50.3296 276.825 50.347 276.744 50.3809C276.663 50.4147 276.589 50.4643 276.527 50.5268L271 56.0601L268.14 53.1935C268.015 53.0679 267.844 52.9974 267.667 52.9974C267.489 52.9974 267.319 53.0679 267.194 53.1935C267.068 53.319 266.997 53.4893 266.997 53.6668C266.997 53.8443 267.068 54.0146 267.194 54.1401L270.527 57.4735C270.589 57.536 270.663 57.5855 270.744 57.6194C270.825 57.6532 270.912 57.6707 271 57.6707C271.088 57.6707 271.175 57.6532 271.257 57.6194C271.338 57.5855 271.412 57.536 271.474 57.4735L277.474 51.4735C277.536 51.4115 277.586 51.3378 277.619 51.2565C277.653 51.1753 277.671 51.0881 277.671 51.0001C277.671 50.9121 277.653 50.825 277.619 50.7437C277.586 50.6625 277.536 50.5888 277.474 50.5268Z" fill="#3535F3"/>
<rect x="42" y="36" width="24" height="24" rx="12" fill="#E8E8FC"/>
<path d="M48 47.3333V52C48 52.3536 48.1405 52.6928 48.3905 52.9428C48.6406 53.1929 48.9797 53.3333 49.3333 53.3333H50.6667V46H49.3333C48.9797 46 48.6406 46.1405 48.3905 46.3905C48.1405 46.6406 48 46.9797 48 47.3333ZM59.4933 46.6667C59.3054 46.4566 59.0753 46.2886 58.8179 46.1737C58.5606 46.0588 58.2818 45.9996 58 46H55.3333V43.3867C55.3441 43.1278 55.2792 42.8714 55.1466 42.6488C55.014 42.4262 54.8194 42.2471 54.5867 42.1333C54.4082 42.0459 54.2125 41.9995 54.0138 41.9974C53.8151 41.9954 53.6185 42.0377 53.4383 42.1215C53.2581 42.2052 53.0989 42.3281 52.9723 42.4813C52.8457 42.6344 52.755 42.8139 52.7067 43.0067L52.04 45.6733C52.014 45.7803 52.0006 45.8899 52 46V53.3333H57.6267C58.1211 53.3363 58.5991 53.1561 58.9685 52.8274C59.3378 52.4986 59.5723 52.0448 59.6267 51.5533L59.9933 48.22C60.0239 47.9405 59.9951 47.6577 59.909 47.39C59.8228 47.1224 59.6812 46.8759 59.4933 46.6667Z" fill="#3535F3"/>
<defs>
<linearGradient id="paint0_linear_1143_21920" x1="88.29" y1="102.31" x2="88.29" y2="214.07" gradientUnits="userSpaceOnUse">
<stop stop-color="#BBD7F4"/>
<stop offset="1" stop-color="#97BFF2"/>
</linearGradient>
<linearGradient id="paint1_linear_1143_21920" x1="165.88" y1="102.31" x2="165.88" y2="214.07" gradientUnits="userSpaceOnUse">
<stop stop-color="#BBD7F4"/>
<stop offset="1" stop-color="#97BFF2"/>
</linearGradient>
<linearGradient id="paint2_linear_1143_21920" x1="80.28" y1="111.15" x2="159.8" y2="111.15" gradientUnits="userSpaceOnUse">
<stop stop-color="#BBD7F4"/>
<stop offset="1" stop-color="#97BFF2"/>
</linearGradient>
<linearGradient id="paint3_linear_1143_21920" x1="181.99" y1="113.02" x2="181.99" y2="225.41" gradientUnits="userSpaceOnUse">
<stop stop-color="#BBD7F4"/>
<stop offset="1" stop-color="#97BFF2"/>
</linearGradient>
<linearGradient id="paint4_linear_1143_21920" x1="181.99" y1="113.02" x2="181.99" y2="225.41" gradientUnits="userSpaceOnUse">
<stop stop-color="#BBD7F4"/>
<stop offset="1" stop-color="#97BFF2"/>
</linearGradient>
<linearGradient id="paint5_linear_1143_21920" x1="178.56" y1="113.02" x2="178.56" y2="225.41" gradientUnits="userSpaceOnUse">
<stop stop-color="#BBD7F4"/>
<stop offset="1" stop-color="#97BFF2"/>
</linearGradient>
<linearGradient id="paint6_linear_1143_21920" x1="62.9101" y1="113.02" x2="62.9101" y2="225.41" gradientUnits="userSpaceOnUse">
<stop stop-color="#BBD7F4"/>
<stop offset="1" stop-color="#97BFF2"/>
</linearGradient>
<linearGradient id="paint7_linear_1143_21920" x1="60.6601" y1="113.02" x2="60.6601" y2="225.41" gradientUnits="userSpaceOnUse">
<stop stop-color="#BBD7F4"/>
<stop offset="1" stop-color="#97BFF2"/>
</linearGradient>
<linearGradient id="paint8_linear_1143_21920" x1="191.26" y1="113.02" x2="191.26" y2="225.41" gradientUnits="userSpaceOnUse">
<stop stop-color="#BBD7F4"/>
<stop offset="1" stop-color="#97BFF2"/>
</linearGradient>
<linearGradient id="paint9_linear_1143_21920" x1="169.81" y1="113.02" x2="169.81" y2="225.41" gradientUnits="userSpaceOnUse">
<stop stop-color="#BBD7F4"/>
<stop offset="1" stop-color="#97BFF2"/>
</linearGradient>
<linearGradient id="paint10_linear_1143_21920" x1="71.9" y1="113.02" x2="71.9" y2="225.41" gradientUnits="userSpaceOnUse">
<stop stop-color="#BBD7F4"/>
<stop offset="1" stop-color="#97BFF2"/>
</linearGradient>
<linearGradient id="paint11_linear_1143_21920" x1="76.12" y1="106.16" x2="76.12" y2="218.55" gradientUnits="userSpaceOnUse">
<stop stop-color="#BBD7F4"/>
<stop offset="1" stop-color="#97BFF2"/>
</linearGradient>
<linearGradient id="paint12_linear_1143_21920" x1="196.85" y1="73" x2="196.85" y2="73" gradientUnits="userSpaceOnUse">
<stop stop-color="#B6DFF6"/>
<stop offset="1" stop-color="#DDEAF7"/>
</linearGradient>
<linearGradient id="paint13_linear_1143_21920" x1="162.39" y1="73" x2="162.39" y2="73" gradientUnits="userSpaceOnUse">
<stop stop-color="#B6DFF6"/>
<stop offset="1" stop-color="#DDEAF7"/>
</linearGradient>
<linearGradient id="paint14_linear_1143_21920" x1="164.9" y1="101.23" x2="164.9" y2="119.69" gradientUnits="userSpaceOnUse">
<stop stop-color="#B6DFF6"/>
<stop offset="1" stop-color="#DDEAF7"/>
</linearGradient>
<linearGradient id="paint15_linear_1143_21920" x1="202.72" y1="101.23" x2="202.72" y2="119.69" gradientUnits="userSpaceOnUse">
<stop stop-color="#B6DFF6"/>
<stop offset="1" stop-color="#DDEAF7"/>
</linearGradient>
</defs>
</svg>
